<?xml version="1.0" standalone="no"?>
<!DOCTYPE svg PUBLIC "-//W3C//DTD SVG 1.1//EN" "http://www.w3.org/Graphics/SVG/1.1/DTD/svg11.dtd" >
<svg xmlns="http://www.w3.org/2000/svg">
<metadata>
Created by FontForge 20120731 at Mon Dec 19 13:33:40 2016
 By admin
</metadata>
<defs>
<font id="iconfont" horiz-adv-x="1024" >
  <font-face 
    font-family="iconfont"
    font-weight="500"
    font-stretch="normal"
    units-per-em="1024"
    panose-1="2 0 6 3 0 0 0 0 0 0"
    ascent="896"
    descent="-128"
    x-height="792"
    bbox="-179 -182 4299 902"
    underline-thickness="0"
    underline-position="0"
    unicode-range="U+0078-E8B1"
  />
<missing-glyph 
 />
    <glyph glyph-name=".notdef" 
 />
    <glyph glyph-name=".notdef" 
 />
    <glyph glyph-name=".null" horiz-adv-x="0" 
 />
    <glyph glyph-name="nonmarkingreturn" horiz-adv-x="341" 
 />
    <glyph glyph-name="x" unicode="x" horiz-adv-x="1001" 
d="M281 543q-27 -1 -53 -1h-83q-18 0 -36.5 -6t-32.5 -18.5t-23 -32t-9 -45.5v-76h912v41q0 16 -0.5 30t-0.5 18q0 13 -5 29t-17 29.5t-31.5 22.5t-49.5 9h-133v-97h-438v97zM955 310v-52q0 -23 0.5 -52t0.5 -58t-10.5 -47.5t-26 -30t-33 -16t-31.5 -4.5q-14 -1 -29.5 -0.5
t-29.5 0.5h-32l-45 128h-439l-44 -128h-29h-34q-20 0 -45 1q-25 0 -41 9.5t-25.5 23t-13.5 29.5t-4 30v167h911zM163 247q-12 0 -21 -8.5t-9 -21.5t9 -21.5t21 -8.5q13 0 22 8.5t9 21.5t-9 21.5t-22 8.5zM316 123q-8 -26 -14 -48q-5 -19 -10.5 -37t-7.5 -25t-3 -15t1 -14.5
t9.5 -10.5t21.5 -4h37h67h81h80h64h36q23 0 34 12t2 38q-5 13 -9.5 30.5t-9.5 34.5q-5 19 -11 39h-368zM336 498v228q0 11 2.5 23t10 21.5t20.5 15.5t34 6h188q31 0 51.5 -14.5t20.5 -52.5v-227h-327z" />
    <glyph glyph-name="weixin" unicode="&#xe603;" 
d="M669 495q14 0 30 -2q-20 95 -110.5 157.5t-206.5 62.5q-130 0 -222 -77.5t-92 -189.5q0 -124 126 -212l-31 -94l109 55q80 -16 110 -16q14 0 30 1q-10 33 -10 66q0 103 77.5 176t189.5 73zM500 580q18 0 28.5 -11t10.5 -28.5t-10.5 -28.5t-28.5 -11t-32.5 11.5
t-14.5 28.5t14.5 28t32.5 11zM280 501q-18 0 -32.5 11.5t-14.5 28.5t14.5 28t32.5 11t29 -11t11 -28.5t-11 -28.5t-29 -11zM956 250q0 93 -80 160.5t-187 67.5q-112 0 -189.5 -67t-77.5 -161.5t77.5 -161t189.5 -66.5q31 0 94 16l86 -47l-23 78q110 83 110 181zM602 289
q-11 0 -21 10t-10 21.5t10 21.5t21 10q17 0 28.5 -9.5t11.5 -22t-11.5 -22t-28.5 -9.5zM775 289q-12 0 -21.5 10t-9.5 21.5t9.5 21.5t21.5 10q17 0 28 -9.5t11 -22t-11 -22t-28 -9.5z" />
    <glyph glyph-name="more-1" unicode="&#xe620;" 
d="M259 456q-35 0 -60 -24.5t-25 -59.5t25 -59.5t60 -24.5t59.5 24.5t24.5 59.5t-24.5 59.5t-59.5 24.5zM512 456q-35 0 -59.5 -24.5t-24.5 -59.5t24.5 -59.5t59.5 -24.5t59.5 24.5t24.5 59.5t-24.5 59.5t-59.5 24.5zM765 456q-35 0 -59.5 -24.5t-24.5 -59.5t24.5 -59.5
t59.5 -24.5t60 24.5t25 59.5t-25 59.5t-60 24.5z" />
    <glyph glyph-name="qq" unicode="&#xe636;" 
d="M200 344l-2 6l-1 6l-1 4v5v5v5l1 6l2 7l2 6l3 8l4 8l5 7v6l1 5l1 7l2 7l2 9l2 4l2 3l2 4l3 3v5v7v7l2 10l1 11l3 14l4 14l3 8l3 9l3 8l4 8l4 9l4 9l6 9l6 10l3 5l3 4l7 10l7 10l8 10l8 10l10 10l9 10l12 10l7 7l9 7l10 6l10 6l9 5l11 5l11 5l12 4l11 4l12 4l12 2l13 3
l13 2l13 2l13 1l14 1h13h13h14l14 -1l13 -2l14 -2l13 -3l13 -3l13 -3l14 -4l13 -4l12 -5l13 -6l12 -6l12 -6l11 -8l10 -6l4 -4l5 -3l9 -8l8 -7l7 -8l8 -8l6 -9l7 -8l5 -9l5 -8l6 -10l4 -8l8 -17l4 -9l3 -9l3 -9l2 -8l2 -8l2 -8l5 -16l2 -13l2 -13l1 -10l3 -16v-3l2 -3l5 -8
l3 -6l3 -5l4 -7l3 -7l2 -8l3 -8l1 -9l1 -4l1 -5v-5l-1 -4v-6l-1 -5l-3 -11l-2 -5l-2 -6v-2l1 -1l2 -5l12 -17l10 -14l4 -9l6 -9l6 -11l6 -11l6 -13l7 -15l4 -8l3 -9l3 -9l3 -8l3 -9l2 -8l3 -16l2 -16l2 -14v-8v-7v-6l-1 -7l-2 -12l-2 -11l-3 -10l-1 -5l-3 -4l-2 -4l-2 -4
l-3 -3l-2 -3l-3 -3l-3 -2l-3 -2l-3 -1l-2 -1h-2h-2l-2 1l-5 2l-2 1l-2 2l-3 2l-2 3l-4 4l-5 6l-3 6l-4 6l-4 6l-5 10l-5 11l-1 1h-1l-2 -2l-2 -3l-2 -4l-4 -10l-6 -16l-7 -18l-6 -9l-6 -10l-7 -10l-7 -11l-4 -5l-5 -5l-10 -10l1 -1l1 -2l5 -3l23 -10l9 -6l9 -5l10 -7l8 -7
l4 -3l3 -3l3 -5l2 -4l1 -4l2 -4l1 -4l1 -5l-1 -3v-3l-1 -3l-2 -3v-2l-2 -3l-4 -5l-3 -5l-3 -3l-3 -2l-6 -5l-7 -4l-7 -4l-8 -3l-9 -3l-5 -2l-4 -1l-10 -3l-11 -2l-10 -2l-12 -2h-12l-12 -2h-12h-13h-13l-14 1l-12 1l-14 2l-14 1l-14 2l-14 4l-13 3l-14 3l-14 5l-13 4l-7 3
l-7 2l-4 2h-4h-5h-6l-13 1l-7 1l-8 1l-6 -5l-7 -5l-10 -5l-11 -6l-7 -3l-7 -3l-16 -6l-8 -2l-9 -3l-13 -2l-7 -1h-8l-9 -1l-10 -1h-9h-10h-22l-22 1l-23 2l-11 2l-11 1l-10 2l-11 2l-10 3l-10 2l-9 4l-8 3l-8 4l-7 4l-6 5l-3 2l-3 3l-2 3l-2 3l-2 3l-1 3l-2 6l-1 3l-1 4v3
l1 4v3l1 4v2v6v4l2 4l1 5l3 5l2 2l1 3l5 5l3 2l3 2l3 3l5 1l3 2l5 3l5 1l6 2l6 1l6 1l6 1l8 1h2v0l1 1v1l-1 2l-4 2l-10 8l-7 6l-7 6l-8 8l-8 10l-10 10l-3 6l-5 6l-4 7l-3 8l-5 7l-3 9l-4 8l-4 9l-2 9l-3 11l-1 1h-1v1h-1l-1 -1l-1 -1l-1 -2l-1 -2l-1 -2l-1 -3l-5 -8l-2 -5
l-4 -4l-4 -5l-4 -6l-5 -5l-5 -5l-5 -5l-6 -3l-6 -4l-6 -2l-7 -2l-6 -1h-1h-1l-1 1l-2 2l-2 2l-2 6l-2 4l-2 4l-1 6l-1 5l-2 11l-1 7v7v15l1 17l1 8l2 9l1 10l3 8l3 10l3 10l4 10l3 10l6 10l4 10l6 10l7 11l7 10l7 11l7 7l7 9l9 8l3 4l5 5l7 6l7 6l11 10l9 6z" />
    <glyph glyph-name="unie61d" unicode="&#xe60a;" 
d="M-57 853v0v0zM743 324q-16 4 -21 10.5t-2 11.5l3 6q2 1 3 3.5t4 9.5t5 14t3 17.5t-0.5 20t-6.5 20.5t-14 20q-16 15 -40.5 19.5t-49.5 0.5t-47 -10t-36 -11l-15 -7q-11 -3 -18 -4t-11 0.5t-6 3t-1.5 7.5t1 10.5t2.5 14t3 15.5q0 13 -1.5 24.5t-7 26t-16 23t-26.5 14
t-41.5 3.5t-57.5 -13q-38 -13 -78 -39t-69 -54.5t-53.5 -54.5t-37.5 -43l-12 -18q-36 -47 -54 -94.5t-17 -71.5v-23q7 -53 33 -95t62 -68t84.5 -44.5t93 -26.5t94.5 -11q81 -7 169 12.5t163.5 66.5t106.5 114q19 38 19.5 72.5t-12 56t-31.5 38t-36 24t-31 9.5v0zM407 -19
q-119 -5 -202.5 46.5t-83.5 131.5q0 78 83 135t203 62.5t203 -40t83 -123.5q0 -79 -84.5 -142.5t-201.5 -69.5v0zM375 287q-32 -3 -57.5 -15t-40 -26.5t-24.5 -32t-13.5 -34t-4.5 -30t-1 -21.5l1 -9v-4q0 -3 2 -13t6 -18.5t12.5 -18.5t21.5 -16q72 -36 135 -22t102 64
q15 18 20 46t-2 56t-24.5 51t-52.5 35.5t-80 7.5v0zM335 78q-7 -1 -13 -0.5t-11 2.5t-9.5 4t-8 6t-6.5 7.5t-4.5 9t-1.5 10.5q0 12 6.5 23.5t18 20t26.5 9.5q10 1 19.5 -0.5t16 -5.5t11.5 -9t7 -11.5t2 -14.5q0 -12 -7 -23t-19.5 -18.5t-26.5 -9.5v0zM429 158
q-8 -6 -16 -5.5t-12 7.5l-2 4q-1 3 -1 5v4q0 4 1 6l2 4q1 2 4 3l3 5q9 7 17 5.5t12 -8.5q3 -5 2.5 -10.5t-3.5 -10.5t-7 -9v0zM821 388q6 0 11.5 3.5t9 8.5t4.5 10q1 2 1 4q13 126 -88 143q-30 6 -55 1q-8 0 -13.5 -3.5t-9.5 -10t-4 -12.5q0 -11 8 -19t19 -8q86 20 92 -55
q2 -19 -2 -35q0 -11 8 -19t19 -8v0zM802 700q-49 11 -130 -5q-1 0 -3 -1l-1 -2l-1 -1q-12 -4 -19.5 -14.5t-7.5 -22.5q0 -16 11 -27t26 -11h3q2 0 5.5 1t8 1.5t9.5 2t9 3.5t15 2t27 -2t35 -8.5t38.5 -16.5t39 -27.5t33.5 -40.5q29 -65 11 -126q0 -1 -0.5 -2t-1.5 -5.5
t-2 -8.5l-2.5 -10t-1.5 -10q0 -10 5.5 -17t14 -9.5t19.5 -2.5q31 0 36 37q14 43 15.5 82.5t-5.5 69t-21.5 55.5t-33.5 44.5t-42 33t-44.5 23.5t-44.5 15v0z" />
    <glyph glyph-name="qzone" unicode="&#xe604;" 
d="M1021 418l-353 52l-158 319l-157 -319l-353 -52l255 -248l-60 -352l315 166l316 -166l-60 352zM665 371l-273 -251h273v-37h-360v37l273 251h-256v34h343v-34z" />
    <glyph glyph-name="erweima" unicode="&#xe61c;" 
d="M371 411h-280q-12 0 -20.5 8.5t-8.5 20.5v280q0 11 8.5 19.5t20.5 8.5h280q12 0 20.5 -8.5t8.5 -19.5v-280q0 -12 -8.5 -20.5t-20.5 -8.5zM119 468h223v223h-223v-223zM931 411h-280q-12 0 -20.5 8.5t-8.5 20.5v280q0 11 8.5 19.5t20.5 8.5h280q12 0 20.5 -8.5t8.5 -19.5
v-280q0 -12 -8.5 -20.5t-20.5 -8.5zM680 468h223v223h-223v-223zM855 -73h-204q-12 0 -20.5 8.5t-8.5 19.5v205q0 11 8.5 19.5t20.5 8.5h204q12 0 20.5 -8.5t8.5 -19.5v-205q0 -11 -8.5 -19.5t-20.5 -8.5zM680 -16h147v147h-147v-147zM371 -149h-280q-12 0 -20.5 8.5
t-8.5 20.5v280q0 11 8.5 19.5t20.5 8.5h280q12 0 20.5 -8.5t8.5 -19.5v-280q0 -12 -8.5 -20.5t-20.5 -8.5zM119 -92h223v223h-223v-223zM511 271h-278q-12 0 -20.5 8.5t-8.5 20t8.5 20t20.5 8.5h249v252q0 11 8.5 19.5t20.5 8.5t20.5 -8.5t8.5 -19.5v-280q0 -12 -8.5 -20.5
t-20.5 -8.5zM511 641q-12 0 -20.5 8.5t-8.5 20.5v50q0 11 8.5 19.5t20.5 8.5t20.5 -8.5t8.5 -19.5v-50q0 -12 -8.5 -20.5t-20.5 -8.5zM141 271h-50q-12 0 -20.5 8.5t-8.5 20t8.5 20t20.5 8.5h50q11 0 19.5 -8.5t8.5 -20t-8.5 -20t-19.5 -8.5zM931 271h-280q-12 0 -20.5 8.5
t-8.5 20t8.5 20t20.5 8.5h280q12 0 20.5 -8.5t8.5 -20t-8.5 -20t-20.5 -8.5zM511 -149q-12 0 -20.5 8.5t-8.5 20.5v280q0 11 8.5 19.5t20.5 8.5t20.5 -8.5t8.5 -19.5v-280q0 -12 -8.5 -20.5t-20.5 -8.5z" />
    <glyph glyph-name="collect" unicode="&#xe600;" 
d="M513 347v0v0v0v0v0zM512 896q-21 0 -39 -11.5t-27 -31.5l-115 -248l-264 -41q-20 -3 -36 -16.5t-22 -33.5q-14 -43 17 -75l193 -201l-45 -280q-3 -21 5 -40.5t25 -31.5q19 -14 43 -14q18 0 35 9l230 125l230 -125q17 -9 36 -9q23 0 42 14q17 12 25 31.5t5 40.5l-45 279
l193 202q31 32 17 75q-6 20 -22 33.5t-36 16.5l-264 41l-115 248q-9 20 -27 31.5t-39 11.5v0v0zM512 896z" />
    <glyph glyph-name="checkbox" unicode="&#xe731;" 
d="M512 -128q-139 0 -257 68.5t-186.5 186.5t-68.5 257t68.5 257t186.5 186.5t257 68.5t257 -68.5t186.5 -186.5t68.5 -257t-68.5 -257t-186.5 -186.5t-257 -68.5zM512 828q-90 0 -172.5 -35.5t-141.5 -94.5t-94.5 -141.5t-35.5 -172.5t35.5 -172.5t94.5 -141.5t141.5 -94.5
t172.5 -35.5t172.5 35.5t141.5 94.5t94.5 141.5t35.5 172.5t-35.5 172.5t-94.5 141.5t-141.5 94.5t-172.5 35.5zM536 235q-10 -10 -24 -10t-24 10l-193 193q-10 10 -10 24t10 24t24 10t24 -10l169 -169l169 169q10 10 24 10t24 -10t10 -24t-10 -24z" />
    <glyph glyph-name="delete" unicode="&#xe74b;" 
d="M914 677v-732q0 -30 -21.5 -51.5t-51.5 -21.5h-658q-30 0 -51.5 21.5t-21.5 51.5v0v732h-73v73h292v73q0 30 21.5 51.5t51.5 21.5h220v0q30 0 51.5 -21.5t21.5 -51.5v-73h292v-73h-73zM402 530h-73v-439h73v439zM549 530h-74v-439h74v439zM695 530h-73v-439h73v439z" />
    <glyph glyph-name="xiazai" unicode="&#xe8b1;" 
d="M477 348q14 -10 28 0h-28zM875 341h-43q-9 0 -15 -6t-6 -15v-192h-598v192q0 9 -6 15t-15 6h-43q-8 0 -14.5 -6t-6.5 -15v-256q0 -9 6.5 -15t14.5 -6h726q8 0 14.5 6t6.5 15v256q0 9 -6.5 15t-14.5 6zM469 242v-7q0 -9 6.5 -15.5t15.5 -6.5h42q9 0 15.5 6.5t6.5 15.5v7
l120 120q6 6 6 14.5t-6 14.5l-28 28q-6 6 -14.5 6t-14.5 -6l-63 -64v349q0 9 -6.5 15t-15.5 6h-42q-9 0 -15.5 -6t-6.5 -15v-349l-63 64q-6 6 -14.5 6t-14.5 -6l-28 -28q-6 -6 -6 -14.5t6 -14.5z" />
    <glyph glyph-name="full" unicode="&#xe605;" 
d="M951 -128h-220q-30 0 -51.5 21.5t-21.5 51.5t21.5 51.5t51.5 21.5h147v147q0 30 21.5 51.5t51.5 21.5t51.5 -21.5t21.5 -51.5v-220q0 -30 -21.5 -51.5t-51.5 -21.5zM951 530q-30 0 -51.5 21.5t-21.5 51.5v147h-147q-30 0 -51.5 21.5t-21.5 51.5t21.5 51.5t51.5 21.5h220
v0q30 0 51.5 -21.5t21.5 -51.5v-220q0 -30 -21.5 -51.5t-51.5 -21.5zM293 -128h-220q-30 0 -51.5 21.5t-21.5 51.5v0v220q0 30 21.5 51.5t51.5 21.5t51.5 -21.5t21.5 -51.5v-147h147q30 0 51.5 -21.5t21.5 -51.5t-21.5 -51.5t-51.5 -21.5zM293 750h-147v-147
q0 -30 -21.5 -51.5t-51.5 -21.5t-51.5 21.5t-21.5 51.5v220q0 30 21.5 51.5t51.5 21.5h220q30 0 51.5 -21.5t21.5 -51.5t-21.5 -51.5t-51.5 -21.5z" />
    <glyph glyph-name="set" unicode="&#xe607;" 
d="M960 320h-70q-19 -108 -90 -188l74 -20q18 -18 18 -44q0 -27 -18.5 -45.5t-45.5 -18.5q-26 0 -44 18l-50 50q-87 -63 -196 -70l38 -66q0 -27 -18.5 -45.5t-45.5 -18.5t-45.5 18.5t-18.5 45.5v70q-108 20 -189 92l-19 -76q-18 -18 -44 -18q-27 0 -45.5 18.5t-18.5 45.5
q0 26 18 44l50 51q-63 87 -71 196l-65 -39q-27 0 -45.5 18.5t-18.5 45.5t18.5 45.5t45.5 18.5h70q19 108 90 188l-74 20q-18 18 -18 44q0 27 18.5 45.5t45.5 18.5q26 0 44 -18l50 -50q87 63 196 70l-38 66q0 27 18.5 45.5t45.5 18.5t45.5 -18.5t18.5 -45.5v-70
q108 -20 188 -92l20 76q18 18 44 18q27 0 45.5 -18.5t18.5 -45.5q0 -26 -18 -44l-50 -51q63 -87 71 -196l65 39q27 0 45.5 -18.5t18.5 -45.5t-18.5 -45.5t-45.5 -18.5zM512 576q-80 0 -136 -56t-56 -136t56 -136t136 -56t136 56t56 136t-56 136t-136 56z" />
    <glyph glyph-name="expenses" unicode="&#xe609;" horiz-adv-x="1166" 
d="M805 -96q-87 0 -160.5 43t-116.5 116.5t-43 160.5t43 160.5t116.5 116.5t160.5 43t161 -43t116.5 -116.5t42.5 -160.5t-42.5 -160.5t-116.5 -116.5t-161 -43v0zM934 406q-8 8 -19 8t-19 -8l-91 -92l-89 89q-8 7 -18 7t-17.5 -7.5t-7.5 -18.5q0 -10 7 -17l62 -63h-43
q-11 0 -19 -8t-8 -19t8 -18.5t19 -7.5h80v-54h-80q-11 0 -19 -7.5t-8 -18.5t8 -19t19 -8h80v-80q0 -11 7.5 -19t18.5 -8t19 8t8 19v80h80q11 0 19 8t8 19t-8 18.5t-19 7.5h-80v54h80q11 0 19 7.5t8 18.5t-8 19t-19 8h-42l64 64q8 8 8 19t-8 19zM499 437h-280q-11 0 -19 -7.5
t-8 -18.5t8 -19t19 -8h249q-34 -70 -36 -152l-213 19q-11 0 -19 -8t-8 -19t8 -19t19 -8h214q7 -94 57 -172.5t130 -124.5l-481 4q-45 0 -76 31t-31 76v746q0 45 31 76t76 31h586q45 0 76 -31t31 -76v-161q-19 1 -27 1v0q-93 0 -173 -42.5t-132 -115.5zM645 624h-426
q-11 0 -19 -8t-8 -19t8 -18.5t19 -7.5h426q11 0 19 7.5t8 18.5t-8 19t-19 8z" />
    <glyph glyph-name="logo" unicode="&#xe610;" horiz-adv-x="1672" 
d="M381 -8h818q91 2 168 49t122 125.5t45 170.5q0 3 -1 6v1q0 96 -47 177.5t-128.5 129t-178.5 47.5h-5h-13q-69 0 -132 -24l3 1q-50 -17 -80.5 -59t-30.5 -95q-1 -1 -1 -3q0 -69 48 -118.5t117 -51.5q36 3 69 11q-6 -1 -16 -3l-13 -3v0q20 0 34 -14t16 -33q-3 -19 -17 -31
t-33 -13v0q-22 -5 -47 -5q-104 2 -179 79t-76 185q2 78 45 140.5t112 92.5q90 42 194 42h1q91 0 174.5 -36t143.5 -96.5t95.5 -143.5t35.5 -175v-4v-2q0 -90 -35.5 -173t-95 -142.5t-142 -95t-173.5 -35.5h-4h-801h-7q-93 0 -171.5 45.5t-125 123t-48.5 169.5q2 95 49 175.5
t127.5 127t175.5 46.5v0q29 128 130.5 211t233.5 84h5h1q56 0 109 -16l51 -20l3 -2q14 -4 23.5 -15.5t10.5 -25.5q-1 -20 -15.5 -34t-34.5 -14v0q-13 0 -23 6v-1q-58 30 -126 31h-4q-98 -1 -174 -62t-98 -154q-4 -14 -5 -26v0v0l-1 -8v-1v0v-1v-2v0q0 -19 -13.5 -33
t-33.5 -15v0q-9 1 -19.5 1t-20.5 -1q-104 -1 -178.5 -75.5t-74.5 -179.5t62.5 -170t166.5 -65h33v0z" />
    <glyph glyph-name="crm" unicode="&#xe611;" horiz-adv-x="1077" 
d="M970 -128h-862q-45 0 -76.5 31.5t-31.5 76.5v808q0 45 31.5 76.5t76.5 31.5h862v0q45 0 76.5 -31.5t31.5 -76.5v-808q0 -45 -31.5 -76.5t-76.5 -31.5zM323 303q0 22 -15.5 38t-38 16t-38 -16t-15.5 -38v-108h-54v378h54v-54q0 -23 15.5 -38.5t38 -15.5t38 15.5t15.5 38.5
v108q0 22 -15.5 37.5t-38.5 15.5h-161q-23 0 -38.5 -15.5t-15.5 -37.5v-486q0 -22 15.5 -37.5t38.5 -15.5h161q23 0 38.5 15.5t15.5 37.5v162zM485 680h-54v0q-22 0 -38 -15.5t-16 -37.5v0v-486q0 -22 16 -37.5t38 -15.5t38 15.5t16 37.5v432q22 0 38 15.5t16 38t-16 38
t-38 15.5zM1024 627q0 22 -16 37.5t-38 15.5h-323q-23 0 -38.5 -15.5t-15.5 -37.5v-486q0 -22 15.5 -37.5t38 -15.5t38.5 15.5t16 37.5v432h54v-432q0 -22 15.5 -37.5t38 -15.5t38 15.5t15.5 37.5v432h54v-432q0 -22 16 -37.5t38 -15.5t38 15.5t16 37.5v486z" />
    <glyph glyph-name="office-params" unicode="&#xe612;" horiz-adv-x="1194" 
d="M1109 384h-341v85h-341v-85h-342q-35 0 -60 25t-25 60v171q0 35 25 60t60 25h256v86q0 35 25 60t61 25v0h341v0q35 0 60 -25t25 -60v-86h256v0q36 0 61 -25t25 -60v-171q0 -35 -25 -60t-61 -25v0zM768 811h-341v-86h341v86zM683 384v-85h-171v85h171zM171 299h256v-86
h341v86h256v0q35 0 60 -25t25 -61v0v-256q0 -35 -25 -60t-60 -25h-853v0q-36 0 -61 25t-25 60v0v256q0 36 25 61t61 25v0z" />
    <glyph glyph-name="products" unicode="&#xe613;" horiz-adv-x="1102" 
d="M630 -128v630l473 236v-630zM0 738l473 158l551 -79l-473 -236zM551 -128l-551 158v630l551 -158v-630z" />
    <glyph glyph-name="com-manage" unicode="&#xe615;" 
d="M887 -128h-204q-29 0 -49 20t-20 48v205q0 28 20 48t49 20v0h68v137h-478v-137h68q29 0 49 -20t20 -48v-205q0 -28 -20 -48t-49 -20h-204q-29 0 -49 20t-20 48v205q0 28 20 48t49 20h68v171q0 14 10 24t24 10h239v140q-59 13 -98 59.5t-39 107.5q0 71 50 121t121 50
t121 -50t50 -121q0 -61 -38.5 -107.5t-97.5 -59.5l-1 -140h239q14 0 24 -10t10 -24v-171h68q29 0 49 -20t20 -48v-205q0 -28 -20 -48t-49 -20z" />
    <glyph glyph-name="purchase" unicode="&#xe616;" horiz-adv-x="1142" 
d="M1085 386h-28l-143 -457q0 -24 -17 -40.5t-40 -16.5h-571q-24 0 -41 16.5t-17 40.5v0l-142 457h-29q-24 0 -40.5 16.5t-16.5 40.5t16.5 40.5t40.5 16.5h1028q24 0 40.5 -16.5t16.5 -40.5t-16.5 -40.5t-40.5 -16.5zM428 329q0 12 -8 20t-20 8t-20.5 -8t-8.5 -20v-314
q0 -12 8.5 -20.5t20.5 -8.5t20 8.5t8 20.5v314zM600 329q0 12 -8.5 20t-20.5 8t-20 -8t-8 -20v-314q0 -12 8 -20.5t20 -8.5t20.5 8.5t8.5 20.5v314zM771 329q0 12 -8.5 20t-20 8t-20 -8t-8.5 -20v-314q0 -12 8.5 -20.5t20 -8.5t20 8.5t8.5 20.5v314zM885 542q-13 -7 -29 -7
q-33 0 -49 28l-143 247q-7 13 -7 28q0 24 16.5 40.5t40.5 16.5q32 0 49 -28l142 -247q8 -13 8 -28q0 -33 -28 -50v0zM335 563q-17 -29 -50 -29q-23 0 -40 17t-17 40q0 16 8 29l142 246q17 29 50 29q23 0 40 -16.5t17 -40.5q0 -15 -8 -29z" />
    <glyph glyph-name="admin" unicode="&#xe617;" horiz-adv-x="1068" 
d="M979 95h-356v-134h89q19 0 32 -13t13 -31.5t-13 -31.5t-32 -13h-356q-18 0 -31 13t-13 31.5t13 31.5t31 13h89v134h-356q-37 0 -63 26t-26 63v0v623q0 37 26 63t63 26h890v0q37 0 63.5 -26t26.5 -63v-623q0 -37 -26.5 -63t-63.5 -26v0zM979 317h-890v-89h890v89z" />
    <glyph glyph-name="roles" unicode="&#xe618;" 
d="M987 428q-11 -100 -56 -187t-117 -151q-1 -7 -18 -20.5t-39 -25.5l47 32q-81 -78 -186 -118l157 92q-21 -18 -56 -45l-17 -13l-24 -18q-7 -5 -23 -17l-17 -11l-79 -55l-3 -3h-1l-3 -2l-1 -1l-2 -1l-1 -1q-1 0 -3 -1h-1q-5 -4 -12 -4l8 2l-2 -1l-1 -1l-2 -1h-2l-2 -1h-1
l-3 -1h-1h-2h-9v-3h-7v1q-27 3 -48 22q-175 112 -317.5 262.5t-245.5 330.5q122 -174 143 -178q6 -1 7 9q1 8 -8 89q-3 26 -5 46l3 218v5q1 30 22.5 50.5t51.5 20.5h1v1v1h6h3q94 0 179.5 32t153.5 91q16 20 42 26l43 -3q25 -10 38 -32q64 -53 149 -83.5t177 -30.5h3h6v-2h1
q30 0 51.5 -20.5t22.5 -50.5v-249zM512 750q-76 0 -129.5 -53.5t-53.5 -129.5q0 -66 41.5 -116t103.5 -63l1 -260q0 -15 11 -26t26 -11t26 11t11 26v110h36q15 0 26 10.5t11 25.5t-11 26t-26 11h-36v77q63 13 104.5 63t41.5 116q0 76 -53.5 129.5t-129.5 53.5v0zM512 457
q-45 0 -77.5 32t-32.5 77.5t32.5 78t77.5 32.5t77.5 -32.5t32.5 -78t-32.5 -77.5t-77.5 -32z" />
    <glyph glyph-name="powers" unicode="&#xe61a;" 
d="M969 295l4 -5l-140 -141l-2 2q-100 -84 -231 -84q-15 0 -30 1l-379 392v19q0 132 84 234l-3 2l141 141q38 39 92 39q48 0 84 -30l-106 -109q-16 -17 -16 -39.5t16 -38.5q15 -17 37.5 -17t37.5 17l196 201q32 -16 51 -46l122 -118q45 -47 70.5 -108t25.5 -128
q0 -101 -55 -185zM201 374l295 -305q1 -8 1 -17q0 -54 -38 -92l-47 -47q-38 -39 -93 -39t-93 39l-187 188q-39 40 -39 95t39 94l46 47q39 39 93 39q12 0 24 -2h-1z" />
    <glyph glyph-name="contacts" unicode="&#xe61b;" 
d="M511 895q8 1 17 1q94 0 162.5 -63.5t76.5 -155.5q0 -83 -19.5 -142t-56 -91t-80 -46t-100.5 -14q-55 0 -99.5 15.5t-80.5 49t-55.5 91.5t-19.5 136q8 93 76.5 156.5t161.5 63.5q9 0 18 -1h-1zM984 -59q-213 -69 -453 -69h-56q-239 3 -463 77q1 37 20 86t41.5 88.5
t51.5 81.5t40.5 57t18.5 23v0q31 28 72.5 28t73.5 -28l73 -138l73 69v-15q0 15 10.5 25.5t25.5 10.5t26 -10.5t11 -25.5v15l73 -69l73 138q31 28 72.5 28t72.5 -28q11 -10 35 -43t53 -82t46.5 -110t9.5 -109v0z" />
    <glyph glyph-name="clients" unicode="&#xe61e;" 
d="M695 -128v951l-342 -124l-24 51l381 146h79l125 -146v-805h73v-73h-292zM549 677l73 -74v-731h-147v731l-365 -146v-585h-73v658l365 147h147zM402 384l-219 -73v73l219 73v-73zM402 238l-219 -73v73l219 73v-73zM402 91l-219 -73v73l219 74v-74zM402 -128h-219v73
l219 73v-146z" />
    <glyph glyph-name="reports" unicode="&#xe61f;" 
d="M731 823l220 -220h-220v220zM695 530h256v-512q0 -60 -43 -103t-103 -43h-586q-60 0 -103 43t-43 103v732q0 60 43 103t103 43h439v-329q0 -15 11 -26t26 -11zM329 91h366v0q15 0 25.5 11t10.5 26t-10.5 26t-25.5 11v0h-366v0q-15 0 -25.5 -11t-10.5 -26t10.5 -26
t25.5 -11v0zM329 238h366v0q15 0 25.5 10.5t10.5 25.5t-10.5 26t-25.5 11v0h-366v0q-15 0 -25.5 -11t-10.5 -26t10.5 -25.5t25.5 -10.5v0zM561 603h-244q-24 -10 -24 -36t24 -37h244q24 11 24 37t-24 36v0zM329 457v0q-15 0 -25.5 -10.5t-10.5 -26t10.5 -26t25.5 -10.5v0
h366v0q15 0 25.5 10.5t10.5 26t-10.5 26t-25.5 10.5v0h-366z" />
    <glyph glyph-name="settings" unicode="&#xe621;" 
d="M960 320h-70q-19 -108 -90 -189l74 -19q19 -18 19 -44.5t-19 -45.5t-45.5 -19t-45.5 19l-49 50q-88 -63 -196 -70l38 -66q0 -27 -18.5 -45.5t-45.5 -18.5t-45.5 18.5t-18.5 45.5v70q-108 20 -189 92l-19 -76q-18 -18 -44 -18q-27 0 -45.5 18.5t-18.5 45.5q0 26 18 44
l50 51q-63 87 -71 196l-65 -39q-27 0 -45.5 18.5t-18.5 45.5t18.5 45.5t45.5 18.5h70q19 108 90 189l-74 18q-19 19 -19 45.5t19 45.5t45.5 19t44.5 -19l50 -50q87 63 196 70l-38 66q0 27 18.5 45.5t45.5 18.5t45.5 -18.5t18.5 -45.5v-70q108 -20 189 -92l18 76
q19 19 45.5 19t45.5 -19t19 -45.5t-19 -44.5l-50 -51q63 -87 71 -196l65 39q27 0 45.5 -18.5t18.5 -45.5t-18.5 -45.5t-45.5 -18.5zM512 640q-106 0 -181 -75t-75 -181t75 -181t181 -75t181 75t75 181t-75 181t-181 75z" />
    <glyph glyph-name="approvals" unicode="&#xe622;" 
d="M874 17h-724q-31 0 -52 21t-21 51.5t21 51.5t52 21h724q31 0 52 -21t21 -51.5t-21 -51.5t-52 -21zM222 234v73h145q25 28 34.5 53t5 41t-13.5 28t-17 17.5t-9 5.5q-75 74 -75 179q0 20 3 40q0 89 63.5 152.5t153.5 63.5t153.5 -63.5t63.5 -154.5q3 -18 3 -38
q0 -105 -75 -179q-8 -8 -22 -19.5t-19 -16.5t-10 -16t0 -22t17 -28.5t34 -42.5h145v-73h-580zM186 -56h652q15 0 25.5 -10.5t10.5 -25.5t-10.5 -25.5t-25.5 -10.5h-652q-15 0 -25.5 10.5t-10.5 25.5t10.5 25.5t25.5 10.5z" />
    <glyph glyph-name="schedules" unicode="&#xe623;" horiz-adv-x="1102" 
d="M945 -128h-787q-66 0 -112 46t-46 112v472h1103v-472q0 -66 -46.5 -112t-111.5 -46zM757.5 321.5q-11.5 11.5 -27.5 11.5t-28 -11l-139 -140l-84 84q-11 11 -27.5 11t-28 -11.5t-11.5 -27.5t12 -28l111 -111q12 -12 28 -12t28 12l167 167q11 11 11 27.5t-11.5 28zM0 660
q0 65 46 111t112 46h78v40q0 16 11.5 27.5t28 11.5t28 -11.5t11.5 -27.5v-40h473v40q0 16 11.5 27.5t27.5 11.5t27.5 -11.5t11.5 -27.5v-40h79q65 0 111.5 -46t46.5 -111v-79h-1103v79v0z" />
    <glyph glyph-name="biz" unicode="&#xe624;" 
d="M693 -123q-43 -5 -91 -5q-271 0 -495 152q-67 77 -67 180q0 105 71 183q8 9 24.5 37t33.5 57t47 64t63.5 62.5t85 47.5t109.5 23q6 0 15 1t38.5 1.5t58.5 -2.5t69.5 -12.5t77 -25t77 -43.5t72.5 -65.5t59.5 -93.5t42.5 -124q0 -9 -0.5 -23t-5.5 -55t-14.5 -79.5t-31 -87
t-51.5 -85.5t-78.5 -67t-109.5 -40zM656 241q15 0 26 10.5t11 25.5t-11 26t-26 11h-109v28l0.5 1.5t0.5 2.5l62 63q10 9 10 22q0 12 -9 21t-21 9q-13 0 -22 -9l-57 -57l-57 56q-9 10 -22 10t-21.5 -9t-8.5 -21q0 -13 9 -22l63 -63v-2.5v-1.5v-28h-109q-15 0 -25.5 -11
t-10.5 -26t10.5 -25.5t25.5 -10.5h109v-73h-109q-15 0 -25.5 -10.5t-10.5 -26t10.5 -26t25.5 -10.5h109v-36q0 -15 11 -26t26 -11t25.5 11t10.5 26v36h109q15 0 26 10.5t11 26t-11 26t-26 10.5h-109v73h109zM547 750h-73q-44 0 -131 23.5t-87 49.5q0 30 21.5 51.5t51.5 21.5
h291q30 0 51.5 -21.5t21.5 -51.5q0 -27 -54.5 -50t-91.5 -23z" />
    <glyph glyph-name="markets" unicode="&#xe625;" 
d="M690 300h-29q-200 0 -365 -112l82 -268q1 -5 1 -11q0 -15 -11 -26t-26 -11q-13 0 -22.5 7.5t-13.5 19.5l-272 930q-1 5 -1 10q0 16 11 27t26 11q13 0 22.5 -7.5t13.5 -19.5l21 -71l41 42q172 127 346 17q63 -41 102 -91q92 -88 271 54q59 47 101 95q5 -106 -2.5 -194.5
t-23 -148.5t-39 -106t-47.5 -72.5t-52.5 -44t-49.5 -24t-43 -8t-29.5 -0.5t-11.5 2v0z" />
    <glyph glyph-name="tasks" unicode="&#xe626;" 
d="M805 -128h-586q-60 0 -103 43t-43 103v585q0 61 43 104t103 43v0h147q0 60 42.5 103t103.5 43t103.5 -43t42.5 -103h147q60 0 103 -43t43 -104v0v-585q0 -60 -43 -103t-103 -43zM512 823q-30 0 -51.5 -21.5t-21.5 -52t21.5 -51.5t51.5 -21t51.5 21t21.5 51.5t-21.5 52
t-51.5 21.5v0zM695 457h-366v0q-15 0 -25.5 -10.5t-10.5 -26t10.5 -26t25.5 -10.5v0h366v0q15 0 25.5 10.5t10.5 26t-10.5 26t-25.5 10.5v0zM695 311h-366v0q-15 0 -25.5 -11t-10.5 -26t10.5 -25.5t25.5 -10.5v0h366v0q15 0 25.5 10.5t10.5 25.5t-10.5 26t-25.5 11v0z
M695 165h-366v0q-15 0 -25.5 -11t-10.5 -26t10.5 -26t25.5 -11v0h366v0q15 0 25.5 11t10.5 26t-10.5 26t-25.5 11v0z" />
    <glyph glyph-name="refull" unicode="&#xe627;" 
d="M731 238h220q30 0 51.5 -21.5t21.5 -52t-21.5 -52t-51.5 -21.5h-146v-146q0 -30 -21.5 -51.5t-52 -21.5t-52 21.5t-21.5 51.5v220q0 30 21.5 51.5t51.5 21.5v0zM731 896v0q31 0 52.5 -21.5t21.5 -51.5v-146h146q30 0 51.5 -21.5t21.5 -52t-21.5 -52t-51.5 -21.5h-220
q-30 0 -51.5 21.5t-21.5 51.5v220q0 30 21.5 51.5t51.5 21.5v0zM73 238h220q30 0 51.5 -21.5t21.5 -51.5v-220q0 -30 -21.5 -51.5t-52 -21.5t-52 21.5t-21.5 51.5v146h-146q-30 0 -51.5 21.5t-21.5 52t21.5 52t51.5 21.5zM73 677h146v146q0 30 21.5 51.5t52 21.5t52 -21.5
t21.5 -51.5v-220q0 -30 -21.5 -51.5t-51.5 -21.5h-220q-30 0 -51.5 21.5t-21.5 52t21.5 52t51.5 21.5z" />
    <glyph glyph-name="d-arrow-left" unicode="&#xe628;" horiz-adv-x="1292" 
d="M917 384l356 -356q16 -24 16 -53q0 -41 -29.5 -70.5t-70.5 -29.5q-29 0 -53 16l-438 438q-18 20 -18 46v3q-1 3 -1 8q0 3 1 7v1q0 26 18 46l438 438q24 15 53 15q41 0 70 -29t29 -70q0 -29 -15 -53zM581 -95q-27 -33 -68 -33q-31 0 -55 19l-439 438q-17 20 -17 46v3
q-1 3 -1 8q0 3 1 7v1q0 26 18 46l438 438q24 15 53 15q41 0 70 -29t29 -70q0 -29 -15 -53l-356 -357l356 -356q19 -24 19 -55q0 -41 -33 -68v0z" />
    <glyph glyph-name="home" unicode="&#xe629;" horiz-adv-x="1116" 
d="M1102 305q-14 -14 -34 -14t-34 14l-56 56l-1 -1v-418q0 -29 -20.5 -49.5t-49.5 -20.5h-209v209q0 29 -20.5 49.5t-48.5 20.5h-140v0q-29 0 -49.5 -20.5t-20.5 -49.5v-209h-209q-29 0 -49.5 20.5t-20.5 49.5v418l-2 1l-56 -56q-14 -14 -34 -14t-34 14t-14 34t14 34
l509 508q15 14 35 14t35 -14l509 -508q14 -14 14 -34t-14 -34z" />
    <glyph glyph-name="dm" unicode="&#xe62a;" 
d="M514 386h437q0 -4 1.5 -17t1.5 -20q0 -97 -37.5 -185.5t-101.5 -152t-152.5 -101.5t-185.5 -38t-185.5 38t-152 101.5t-101.5 152t-38 185.5t38 185.5t101.5 152.5t152 101.5t185.5 37.5q7 0 20 -1.5t17 -1.5v-437zM587 896q116 -9 213 -68.5t156 -156.5t68 -212h-437
v437z" />
    <glyph glyph-name="analysis" unicode="&#xe62b;" 
d="M0 530h146v-658h-146v658zM293 896h146v-1024h-146v1024zM585 384h146v-512h-146v512zM878 238h146v-366h-146v366z" />
    <glyph glyph-name="friends" unicode="&#xe62c;" 
d="M591 592q-3 1 -6 1t-7 -1q-28 12 -60 13l12 -2q-1 0 -4 1h-13q-80 0 -140 -51l-96 283q110 60 238 60q176 0 312.5 -108t178.5 -275zM297 428q-4 -21 -4 -43q0 -79 49.5 -139t125.5 -76q19 -4 38 -4l-204 -228q-5 -8 -5 -18q-134 65 -215 189.5t-81 274.5
q0 125 56.5 233.5t154.5 179.5l107 -312q-23 -40 -26 -88zM727 342q4 20 4 42q0 61 -31 113l319 -65q3 -26 3 -56q0 -102 -40 -195.5t-107.5 -161t-161 -107.5t-195.5 -40q-56 0 -109 12q-70 18 -132 56l353 261q41 26 67 66.5t33 88.5z" />
    <glyph glyph-name="e-dropdown" unicode="&#xe62e;" 
d="M512 -128q-139 0 -257 68.5t-186.5 186.5t-68.5 257t68.5 257t186.5 186.5t257 68.5t257 -68.5t186.5 -186.5t68.5 -257t-68.5 -257t-186.5 -186.5t-257 -68.5zM512 828q-90 0 -172.5 -35.5t-141.5 -94.5t-94.5 -141.5t-35.5 -172.5t35.5 -172.5t94.5 -141.5t141.5 -94.5
t172.5 -35.5t172.5 35.5t141.5 94.5t94.5 141.5t35.5 172.5t-35.5 172.5t-94.5 141.5t-141.5 94.5t-172.5 35.5zM536 235q-10 -10 -24 -10t-24 10l-193 193q-10 10 -10 24t10 24t24 10t24 -10l169 -169l169 169q10 10 24 10t24 -10t10 -24t-10 -24z" />
    <glyph glyph-name="clues" unicode="&#xe62f;" 
d="M370 165h326q25 33 63 52t81 19q76 0 129.5 -53t53.5 -128.5t-53.5 -129t-129.5 -53.5q-65 0 -115 41t-63 104l-292 1q-91 0 -155.5 64.5t-64.5 155.5t64.5 155t155.5 64h6h1.5h1.5v0h279q31 0 52 21.5t21 52t-21 51.5t-52 21h-330q-25 -33 -63 -52.5t-82 -19.5
q-75 0 -128.5 53.5t-53.5 129t53.5 129t128.5 53.5q66 0 116 -41.5t63 -104.5h4h292q91 0 155.5 -64.5t64.5 -155.5t-64.5 -155t-155.5 -64h-288v0q-30 0 -51.5 -21.5t-21.5 -52t21.5 -51.5t51.5 -21v0z" />
    <glyph glyph-name="s-dropdown" unicode="&#xe630;" 
d="M512 -128q-139 0 -257 68.5t-186.5 186.5t-68.5 257t68.5 257t186.5 186.5t257 68.5t257 -68.5t186.5 -186.5t68.5 -257t-68.5 -257t-186.5 -186.5t-257 -68.5zM729 476q-10 10 -24 10t-24 -10l-169 -169l-169 169q-10 10 -24 10t-24 -10t-10 -24t10 -24l193 -193
q10 -10 24 -10t24 10l193 193q10 10 10 24t-10 24z" />
    <glyph glyph-name="params" unicode="&#xe631;" horiz-adv-x="1102" 
d="M945 -128h-787q-66 0 -112 46t-46 112v708q0 66 46 112t112 46h787q65 0 111.5 -46t46.5 -112v-708q0 -66 -46.5 -112t-111.5 -46zM827 660h-118v39q0 16 -11.5 27.5t-28 11.5t-28 -11.5t-11.5 -27.5v-39h-354q-17 0 -28.5 -11.5t-11.5 -28t11.5 -28t28.5 -11.5h354v-39
q0 -17 11.5 -28.5t28 -11.5t28 11.5t11.5 28.5v39h118q16 0 27.5 11.5t11.5 28t-11.5 28t-27.5 11.5zM827 423h-354v40q0 16 -11.5 27.5t-28 11.5t-28 -11.5t-11.5 -27.5v-40h-118q-17 0 -28.5 -11.5t-11.5 -27.5t11.5 -27.5t28.5 -11.5h118v-40q0 -16 11.5 -27.5t28 -11.5
t28 11.5t11.5 27.5v40h354q16 0 27.5 11.5t11.5 27.5t-11.5 27.5t-27.5 11.5zM827 187h-118v39q0 17 -11.5 28.5t-28 11.5t-28 -11.5t-11.5 -28.5v-39h-354q-17 0 -28.5 -11.5t-11.5 -28t11.5 -28t28.5 -11.5h354v-39q0 -16 11.5 -27.5t28 -11.5t28 11.5t11.5 27.5v39h118
q16 0 27.5 11.5t11.5 28t-11.5 28t-27.5 11.5z" />
    <glyph glyph-name="dashboard" unicode="&#xe632;" horiz-adv-x="1194" 
d="M1014 -128h-834q-85 83 -132.5 193.5t-47.5 233.5q0 122 47.5 232.5t127 190.5t190 127t232 47t232 -47t190.5 -127t127.5 -190.5t47.5 -232.5q0 -123 -47.5 -233.5t-132.5 -193.5v0zM97 345l6 -86l170 13l-6 86zM282 699l-55 -65l129 -111l56 65zM664 818l-86 -7
l13 -170l86 7zM671 244q-15 22 -40 30l-205 196l87 -270q1 -19 12 -35q26 -36 72 -36q23 0 43 11q19 8 30.5 26t11.5 39t-11 39v0zM953 688l-111 -130l65 -55l110 129zM960 323l6 -85l171 13l-7 85z" />
    <glyph glyph-name="field" unicode="&#xe633;" 
d="M866 -128h-708q-66 0 -112 46t-46 112v708q0 66 46 112t112 46h708q66 0 112 -46t46 -112v-708q0 -66 -46 -112t-112 -46zM512 660h-315q-16 0 -27.5 -11.5t-11.5 -28t11.5 -28t27.5 -11.5h118v-276q0 -16 11.5 -27.5t28 -11.5t28 11.5t11.5 27.5v276h118q16 0 27.5 11.5
t11.5 28t-11.5 28t-27.5 11.5zM827 660h-157q-17 0 -28.5 -11.5t-11.5 -28t11.5 -28t28.5 -11.5h157q16 0 27.5 11.5t11.5 28t-11.5 28t-27.5 11.5zM827 502h-157q-17 0 -28.5 -11.5t-11.5 -28t11.5 -28t28.5 -11.5h157q16 0 27.5 11.5t11.5 28t-11.5 28t-27.5 11.5z
M827 345h-157q-17 0 -28.5 -11.5t-11.5 -28t11.5 -28t28.5 -11.5h157q16 0 27.5 11.5t11.5 28t-11.5 28t-27.5 11.5zM827 187h-630q-16 0 -27.5 -11.5t-11.5 -28t11.5 -28t27.5 -11.5h630q16 0 27.5 11.5t11.5 28t-11.5 28t-27.5 11.5z" />
    <glyph glyph-name="teamwork" unicode="&#xe634;" horiz-adv-x="1068" 
d="M932 139q-281 206 -628 273q113 -37 189 -60t115.5 -33.5t58.5 -12t22 0.5t3 9v1q0 27 20 45q60 85 60 191q0 35 -7 68q-3 61 -35 113t-84 83q23 35 58.5 56t76.5 22q60 -3 103.5 -46.5t45.5 -104.5q3 -30 2 -61t-5.5 -59t-22.5 -56t-49 -51q-14 -16 -14 -37.5t14 -38.5
q2 -2 29 -19.5t59.5 -39.5t69 -58t56.5 -72v-113h-137zM623 317q-15 -19 -15 -44t15 -45q3 -3 51.5 -23t106 -46.5t117 -69t81.5 -83.5v-134h-890v134q18 34 62 69.5t92 61.5t95.5 47.5t76 32.5t30.5 11q16 20 16 45t-16 44q-89 66 -89 267q0 74 52 126t126 52t126 -52
t52 -126q0 -9 0.5 -35.5t0.5 -37t-1.5 -34t-5 -35.5t-10 -32t-16 -33.5t-24 -29.5t-33.5 -30zM303 619q-2 -5 -5 -13t-6 -35t0.5 -55t19 -70.5t44.5 -83.5q19 -19 19 -45t-19 -44q-319 -162 -535 -437l179 303v113q16 30 43.5 60t55.5 52t55 40.5t42.5 27.5t17.5 9
q13 17 13 38.5t-13 37.5q-25 18 -41.5 48t-23 60t-9.5 57.5t-3 44.5l1 17q2 61 46 105t105 46q42 -2 76.5 -23.5t54.5 -57.5q-52 -32 -83.5 -84.5t-33.5 -115.5v5z" />
    <glyph glyph-name="forecast" unicode="&#xe635;" horiz-adv-x="1102" 
d="M1024 -128q-33 0 -56 23t-23 56v394q0 32 23 55t56 23t56 -23t23 -55v-394q0 -33 -23 -56t-56 -23zM1024 502q-33 0 -56 23t-23 56v26l-268 -169q-20 -13 -44 -13q-6 0 -12 1q-4 -1 -11 -1q-16 0 -29 8l-164 115l-298 -162q-18 -10 -40 -10q-32 0 -55.5 23t-23.5 55
q0 23 12 41.5t31 28.5l280 152q12 25 34 41q-1 3 5.5 7.5t19.5 8t26 3.5q18 0 35 -8l197 -138l235 148h-87q-33 0 -56 23.5t-23 56t23 55.5t56 23h236q33 0 56 -23t23 -56v-236q0 -33 -23 -56t-56 -23zM78.5 108q32.5 0 56 -23t23.5 -55v-79q0 -33 -23.5 -56t-56 -23
t-55.5 23t-23 56v79q0 32 23 55t55.5 23zM393.5 266q32.5 0 56 -23t23.5 -56v-236q0 -33 -23.5 -56t-56 -23t-55.5 23t-23 56v236q0 33 23 56t55.5 23zM709 187q33 0 56 -23t23 -56v-157q0 -33 -23 -56t-56 -23t-56 23t-23 56v157q0 33 23 56t56 23z" />
    <glyph glyph-name="email-settings" unicode="&#xe637;" horiz-adv-x="1539" 
d="M1174 692q-41 -2 -79 -10l130 112v-107q-32 5 -68 5h17zM573 380l-527 500q25 16 56 16v0h1021q30 0 56 -16l-529 -500q-16 -15 -38 -15t-39 15v0zM685 282l38 36q-8 -41 -8 -88q0 -139 78 -254l-691 1h-3q-40 0 -69 28t-30 69v720l540 -512q31 -28 72.5 -28t72.5 28v0z
M1487 188h-49q-13 -76 -63 -132l52 -13q14 -14 14 -33q0 -18 -13 -31.5t-32 -13.5t-32 15l-35 35q-61 -44 -137 -49l27 -46v-2q0 -19 -13 -32t-31.5 -13t-32 13t-13.5 32v2v49q-75 13 -131 64l-13 -53q-14 -15 -33 -15t-32 13.5t-13 31.5q0 20 14 33l36 35q-45 61 -50 137
l-46 -27q-17 1 -29.5 14t-12.5 30.5t12 30.5t30 14h49q13 75 63 132l-52 13q-13 13 -13 31.5t13.5 31.5t32 13t31.5 -13l34 -35q61 44 136 49l-26 46q1 18 14 30.5t31 12.5t31 -12.5t14 -30.5v-49q75 -14 131 -64l14 53q13 13 31.5 13t31.5 -13t13 -31.5t-13 -31.5l-35 -35
q44 -61 49 -137l46 27h2q18 0 31.5 -13t13.5 -31.5t-13.5 -31.5t-31.5 -13h-2v0zM1174 366v0q-56 0 -95 -39t-39 -94.5t39 -95t95 -39.5t95 39.5t39 94.5v0q0 56 -39 95t-95 39v0z" />
    <glyph glyph-name="targets" unicode="&#xe638;" 
d="M951 311h-7q-24 -140 -124.5 -239t-239.5 -120l5 -7q0 -30 -21.5 -51.5t-51.5 -21.5t-51.5 21.5t-21.5 51.5v7q-140 25 -239 125t-121 239l-6 -5q-30 0 -51.5 21.5t-21.5 51.5t21.5 51.5t51.5 21.5h7q24 140 124.5 239t239.5 120l-5 7q0 30 21.5 51.5t51.5 21.5
t51.5 -21.5t21.5 -51.5v-7q140 -25 239 -125t121 -239l6 5q30 0 51.5 -21.5t21.5 -51.5t-21.5 -51.5t-51.5 -21.5zM512 603q-91 0 -155 -64t-64 -155t64 -155t155 -64t155 64t64 155t-64 155t-155 64v0zM512 238q-61 0 -103.5 42.5t-42.5 103.5t42.5 103.5t103.5 42.5
t103.5 -42.5t42.5 -103.5t-42.5 -103.5t-103.5 -42.5z" />
    <glyph glyph-name="knowledge" unicode="&#xe639;" horiz-adv-x="1194" 
d="M1109 -128h-1024q-35 0 -60 25t-25 60v0v854q0 35 25 60t60 25h342q35 0 60 -25t25 -60l85 -86h512v0q36 0 61 -25t25 -60v-683q0 -35 -25 -60t-61 -25v0zM1067 640h-939q-18 0 -30.5 -12.5t-12.5 -30t12.5 -30t30.5 -12.5h939q17 0 29.5 12.5t12.5 30t-12.5 30
t-29.5 12.5z" />
    <glyph glyph-name="account-info" unicode="&#xe63a;" horiz-adv-x="1303" 
d="M1117 -128h-931q-77 0 -131.5 54.5t-54.5 131.5v652q0 77 54.5 131.5t131.5 54.5h931q77 0 131.5 -54.5t54.5 -131.5v-652q0 -77 -54.5 -131.5t-131.5 -54.5zM419 710v0q-58 0 -99 -41t-41 -99t41 -98.5t99 -40.5t99 40.5t41 98.5t-41 99t-99 41zM419 337v0
q-97 0 -165 -68t-68 -164q0 -25 5 -48l456 1q5 22 5 47q0 96 -68.5 164t-164.5 68v0zM1071 617h-280q-19 0 -32.5 -14t-13.5 -33t13.5 -32.5t32.5 -13.5h280q19 0 32.5 13.5t13.5 32.5t-13.5 33t-32.5 14zM1071 431h-187q-19 0 -32.5 -14t-13.5 -33t13.5 -33t32.5 -14h187
q19 0 32.5 14t13.5 33t-13.5 33t-32.5 14zM1071 244h-187q-19 0 -32.5 -13.5t-13.5 -32.5t13.5 -33t32.5 -14h187q19 0 32.5 14t13.5 33t-13.5 32.5t-32.5 13.5z" />
    <glyph glyph-name="ex-menu" unicode="&#xe63b;" horiz-adv-x="1194" 
d="M85 896h1024q36 0 61 -25t25 -60.5t-25 -60.5t-61 -25h-1024q-35 0 -60 25t-25 60.5t25 60.5t60 25zM85 469h1024q36 0 61 -25t25 -60t-25 -60t-61 -25h-1024q-35 0 -60 25t-25 60t25 60t60 25zM85 43h1024q36 0 61 -25t25 -60.5t-25 -60.5t-61 -25h-1024q-35 0 -60 25
t-25 60.5t25 60.5t60 25z" />
    <glyph glyph-name="edit" unicode="&#xe63d;" 
d="M1001 558l-88 -88l-315 316l87 88q22 22 53 22t53 -22l210 -211q22 -22 22 -52.5t-22 -52.5zM440 -5q-22 -22 -53 -22t-53 22l-87 88l298 299q7 7 7 17t-7.5 17.5t-17.5 7.5t-17 -7l-298 -299l-88 88q-22 22 -22 53t22 52l403 405l316 -317zM53 -125q-20 1 -34.5 15
t-14.5 34l-3 194l246 -246z" />
    <glyph glyph-name="play" unicode="&#xe640;" 
d="M764 384l-504 -511v1022z" />
    <glyph glyph-name="text-edit" unicode="&#xe641;" 
d="M878 -128h-732q-60 0 -103 43t-43 103v732q0 60 43 103t103 43h366q30 0 51.5 -21.5t21.5 -51.5t-21.5 -51.5t-51.5 -21.5h-293v0q-30 0 -51.5 -21.5t-21.5 -51.5v-586q0 -30 21.5 -51.5t51.5 -21.5h586v0q30 0 51.5 21.5t21.5 51.5v0v293v0q0 30 21.5 51.5t51.5 21.5
t51.5 -21.5t21.5 -51.5v0v-366q0 -60 -43 -103t-103 -43zM451 220q-21 -21 -50 -21q-31 0 -52.5 21.5t-21.5 52.5q0 29 21 50l517 518q22 21 52 21t51.5 -21.5t21.5 -51.5t-21 -52z" />
    <glyph glyph-name="email-draft" unicode="&#xe642;" horiz-adv-x="1102" 
d="M1024 -128h-473q-32 0 -55 23t-23 56v79h-394v0q-24 0 -44 12l359 283v-295h79v472q0 33 23 56t55 23h315v1l1 -1h49l6 4q3 -5 7 -8l95 4q33 0 56 -23t23 -56v-551q0 -33 -23 -56t-56 -23zM985 423h-394q-17 0 -28.5 -11.5t-11.5 -27.5t11.5 -27.5t28.5 -11.5h394
q16 0 27.5 11.5t11.5 27.5t-11.5 27.5t-27.5 11.5zM985 266h-394q-17 0 -28.5 -11.5t-11.5 -28t11.5 -28t28.5 -11.5h394q16 0 27.5 11.5t11.5 28t-11.5 28t-27.5 11.5zM985 108h-394q-17 0 -28.5 -11.5t-11.5 -27.5t11.5 -27.5t28.5 -11.5h394q16 0 27.5 11.5t11.5 27.5
t-11.5 27.5t-27.5 11.5zM473 813l-345 -289l236 -134l-364 -280v421q0 31 23 53l35 -20l397 332l18 -17l17 17l283 -236h-118z" />
    <glyph glyph-name="trip" unicode="&#xe643;" horiz-adv-x="1230" 
d="M1200 669l-675 -552q-33 -41 -77.5 -65t-80.5 -31t-74.5 -5.5t-52.5 4.5t-21 5v0q-33 17 -62 36t-50 36t-39 34t-29.5 31t-19.5 24.5t-11.5 16.5l-3.5 6q-4 22 -4 46t5 48q18 45 111 31l11 -2l153 -62l120 120l-334 279q-12 17 -16 39l-15 -9q-2 15 -2 31t2 32
q2 15 8 25.5t13.5 15.5t16.5 7.5t19 1.5t19.5 -3t18 -5t14.5 -5.5t10 -5l4 -2.5l469 -205l297 267q61 43 137.5 43t138.5 -44q57 -43 10 -159zM863 332l183 -399q-2 -24 -19 -41.5t-42 -19.5l-276 276q-10 13 -10 30.5t10 30.5z" />
    <glyph glyph-name="timing-email" unicode="&#xe644;" horiz-adv-x="1536" 
d="M1229 -128q-127 0 -217 90t-90 217t90 217t217 90t217 -90t90 -217t-90 -217t-217 -90zM1229 179v205h-103v-307h308v102h-205zM819 179q1 -112 59 -208l-776 3h-2q-41 0 -70 28.5t-30 69.5v722l542 -513q31 -29 72.5 -29t72.5 29l542 513v-205q-111 0 -205.5 -55
t-149.5 -149.5t-55 -205.5zM575 378l-529 502q25 16 56 16v0h1024q31 0 57 -16l-531 -502q-16 -15 -38 -15t-39 15v0z" />
    <glyph glyph-name="print" unicode="&#xe645;" 
d="M951 165h-73v-220q0 -30 -21.5 -51.5t-51.5 -21.5h-586q-30 0 -51.5 21.5t-21.5 51.5v0v220h-73q-30 0 -51.5 21t-21.5 52v0v365v0q0 31 21.5 52.5t51.5 21.5h73v146q0 30 21.5 51.5t51.5 21.5h586v0q30 0 51.5 -21.5t21.5 -51.5v-146h73v0q30 0 51.5 -21.5t21.5 -52.5v0
v-365q0 -31 -21.5 -52t-51.5 -21v0zM219 -55h586v220h-586v-220z" />
    <glyph glyph-name="likes" unicode="&#xe646;" 
d="M1024 384q-7 -85 -21.5 -159.5t-31 -125t-37 -92.5t-37 -65t-33.5 -41t-23 -22.5t-9 -6.5v0h-704q-53 0 -90.5 37.5t-37.5 90.5v384q0 53 37.5 90.5t90.5 37.5h128q72 2 115 230q13 73 13 90q7 20 23 34t33.5 19.5t34 8t26.5 2.5h11q43 1 73 -20t44.5 -54.5t21.5 -74.5
t5 -82.5t-5 -75.5t-7 -56l-4 -21h256h9q49 0 84 -35t35 -84v-10v1zM192 448h-128v-512h128v512zM832 448h-256v320q-21 39 -64 39q-21 0 -38 -10.5t-26 -28.5q-3 -5 -10.5 -51.5t-18 -97t-37 -101.5t-62.5 -70h-64v-512h512q3 1 8 2.5t20 13t30 28.5t35 52t37 79.5t34 115.5
t28 157v7.5t-6 15.5t-17.5 19.5t-39 15.5t-65.5 6z" />
    <glyph glyph-name="attachment" unicode="&#xe647;" horiz-adv-x="1045" 
d="M485 -67q-81 -61 -184 -61q-123 0 -213 85q-41 40 -64 93t-23 113q0 101 63 179l-2 1l505 489q67 64 159.5 64t159.5 -64q65 -63 65 -154.5t-65 -154.5l-479 -463q-44 -42 -106 -42t-106 42t-44 103t44 103l425 412l53 -51l-425 -412q-22 -22 -22 -52t22 -51
q22 -22 53 -22t53 22l478 463q44 42 44 102.5t-44 102.5q-44 43 -106 43t-106 -43l-478 -463q-66 -63 -66 -154t65 -154q67 -64 160 -64t159 64l532 514l53 -51l-558 -541z" />
    <glyph glyph-name="pay" unicode="&#xe648;" 
d="M949 -53h-549q-17 0 -30 10l-78 -78q-7 -7 -17.5 -7t-17.5 7t-7 18q0 4 1 8l337 337q21 22 21 52q0 31 -22 53t-53 22q-30 0 -52 -21l-200 -200q-4 -1 -8 -1q-10 0 -17 7q-8 7 -8 17.5t8 17.5l93 93v229l-275 -274v-340q0 -10 -7.5 -17.5t-17.5 -7.5t-17.5 7.5t-7.5 17.5
v348v2q0 5 2 9q3 7 10 12l313 313v265q0 21 14.5 35.5t35.5 14.5h549q20 0 35 -14.5t15 -35.5v-849q0 -21 -15 -35.5t-35 -14.5zM824 721q0 11 -7.5 18t-17.5 7t-17.5 -7t-7.5 -18v-599q0 -10 7.5 -17.5t17.5 -7.5t17.5 7.5t7.5 17.5v599z" />
    <glyph glyph-name="more" unicode="&#xe649;" horiz-adv-x="4437" 
d="M3819 -96v0q-98 0 -187 38t-153 102.5t-102 153t-38 186.5t38 186.5t102 153t153 102.5t186.5 38t186.5 -38t153.5 -102.5t102.5 -153t38 -186.5t-38 -186.5t-102.5 -153t-153.5 -102.5t-186 -38zM2218.5 -96q-97.5 0 -186.5 38t-153 102.5t-102 153t-38 186.5t38 186.5
t102 153t153 102.5t186.5 38t186.5 -38t153.5 -102.5t102.5 -153t38 -186.5t-38 -186.5t-102.5 -153t-153.5 -102.5t-186.5 -38zM618.5 -96q-97.5 0 -186.5 38t-153 102.5t-102 153t-38 186.5t38 186.5t102 153t153 102.5t186.5 38t186.5 -38t153.5 -102.5t102.5 -153
t38 -186.5t-38 -186.5t-102.5 -153t-153.5 -102.5t-186.5 -38z" />
    <glyph glyph-name="shut" unicode="&#xe64a;" 
d="M649 385l346 -345q29 -29 29 -69.5t-28.5 -69t-69.5 -28.5t-69 28l-346 347l-346 -347q-28 -28 -68 -28q-41 0 -69.5 29t-28.5 69q0 41 28 69l346 345l-346 347q-25 27 -25 65q0 40 28.5 69t69.5 29q37 0 65 -25l346 -346l346 346q28 25 66 25q40 0 68.5 -28.5
t28.5 -69.5q0 -37 -25 -65z" />
    <glyph glyph-name="close" unicode="&#xe64b;" 
d="M512 -128q-139 0 -257 68.5t-186.5 186.5t-68.5 257t68.5 257t186.5 186.5t257 68.5t257 -68.5t186.5 -186.5t68.5 -257t-68.5 -257t-186.5 -186.5t-257 -68.5zM693 515q11 10 11 25.5t-11 26t-26 10.5t-26 -11l-130 -130l-129 130q-11 11 -26 11t-26 -10.5t-11 -26
t11 -25.5l130 -130l-130 -130q-11 -11 -11 -26t11 -26t26 -11t26 11l129 130l130 -130q11 -11 26 -11t26 11t11 26t-11 26l-130 130z" />
    <glyph glyph-name="unflag" unicode="&#xe64c;" 
d="M469 298q-126 89 -282 89q-31 0 -62 -4l3 -511h-85v1022h85q293 18 441 -142q54 -58 70 -113q24 -47 68.5 -73t88.5 -30.5t88.5 0t68 10.5t27.5 8q-71 -321 -266 -339q-109 -9 -229 71q-16 11 -16 12zM554 554q-1 6 -3 16.5t-12.5 40t-27 56t-49.5 57.5t-76 51.5t-110 31
t-148 2.5v-341q12 1 32 1.5t77 -1.5t108 -9.5t110.5 -27t98.5 -48.5q5 -4 13 -10t33.5 -20.5t50.5 -23t60 -9.5t65.5 11t62.5 46.5t56 90.5q-6 -2 -16 -5t-44.5 -5.5t-71.5 3.5t-94 29t-115 64z" />
    <glyph glyph-name="flag" unicode="&#xe64d;" 
d="M469 298q-126 89 -282 89q-31 0 -62 -4l3 -511h-85v1022h85q293 18 441 -142q54 -58 70 -113q24 -47 68.5 -73t88.5 -30.5t88.5 0t68 10.5t27.5 8q-71 -321 -266 -339q-109 -9 -229 71q-16 11 -16 12z" />
    <glyph glyph-name="emer-mail" unicode="&#xe64e;" horiz-adv-x="1213" 
d="M1117 151q-34 0 -56 38.5t-29.5 93t-9.5 109.5t0 93l2 39q0 38 27.5 65.5t66 27.5t65.5 -27.5t27 -65.5q0 -6 1.5 -37t1.5 -60.5t-1 -70.5t-7 -75t-16 -64.5t-28.5 -48t-43.5 -17.5zM931 524v-466h-838h-2q-37 0 -63.5 26t-27.5 63v656l493 -466q28 -26 66 -26t65 26
l493 466v-93q-77 0 -131.5 -54.5t-54.5 -131.5zM523 425l-481 456q23 15 51 15v0h931q28 0 51 -15l-482 -456q-15 -13 -35 -13t-35 13v0zM1117.5 58q38.5 0 65.5 -27t27 -65.5t-27 -66t-65.5 -27.5t-66 27.5t-27.5 66t27.5 65.5t66 27z" />
    <glyph glyph-name="disabled" unicode="&#xe64f;" 
d="M827 -128h-630q-33 0 -56 23t-23 56v472q0 33 23 56t56 23v118q0 115 80.5 195.5t195.5 80.5h78q115 0 195.5 -80.5t80.5 -195.5v-118q33 0 56 -23t23 -56v-472q0 -33 -23 -56t-56 -23zM748 620q0 82 -57.5 139.5t-139.5 57.5h-78q-82 0 -139.5 -57.5t-57.5 -139.5v-118
h472v118z" />
    <glyph glyph-name="build" unicode="&#xe650;" 
d="M906 266h-276v-276q0 -49 -34.5 -83.5t-83.5 -34.5t-83.5 34.5t-34.5 83.5v276h-276q-49 0 -83.5 34.5t-34.5 83.5t34.5 83.5t83.5 34.5h276v276q0 49 34.5 83.5t83.5 34.5t83.5 -34.5t34.5 -83.5v-276h276q49 0 83.5 -34.5t34.5 -83.5t-34.5 -83.5t-83.5 -34.5z" />
    <glyph glyph-name="absence" unicode="&#xe651;" 
d="M666 -128h-163q-61 1 -109 15.5t-76 36.5t-47 48t-26.5 51.5t-10.5 47.5t-2.5 35l0.5 13q4 38 21 71.5t41 58t53 45t56 33.5t50 22t36 13t14 4q-23 23 -40 55.5t-24.5 57.5t-11.5 53.5t-4.5 37.5t-0.5 15q0 26 5.5 48t15 37.5t21.5 28t25.5 20.5t27 14.5t26 9t22 4.5
t14.5 2l6 1q3 0 9 -0.5t23 -4.5t32 -10t34 -18.5t32.5 -29t23 -43t9.5 -59.5q0 -5 -0.5 -15t-4.5 -37.5t-12 -53.5t-25 -58t-40 -55q5 -2 14.5 -4.5t36 -12.5t51 -22.5t55 -33.5t53.5 -44.5t40.5 -57.5t21.5 -72q0 -5 0.5 -13.5t-2.5 -34t-10.5 -48t-26.5 -51t-47 -49
t-76 -35.5t-110 -16zM378 725v0q10 0 17 -7t7 -17v-98v0q0 -13 -10 -21l-78 -49q-5 -3 -11 -3q-14 0 -20 12q-3 6 -3 13q0 13 11 21l63 39v86v0q0 10 7 17t17 7zM366 847h-1q-96 0 -163.5 -67.5t-67.5 -163.5q0 -77 45 -138t117 -83q24 -63 66 -108q-132 56 -204.5 140.5
t-72.5 188.5q0 116 82.5 198t198.5 82q62 0 117.5 -26t94.5 -71q-36 -2 -70 -10q-23 27 -61 42.5t-81 15.5v0z" />
    <glyph glyph-name="comment" unicode="&#xe652;" 
d="M805 18h-123l-125 -126q-19 -18 -46 -18t-46 18l-125 126h-121q-90 0 -154.5 64.5t-64.5 155.5v0v439q0 90 64.5 154.5t154.5 64.5h586q90 0 154.5 -64.5t64.5 -154.5v-439q0 -91 -64.5 -155.5t-154.5 -64.5v0v0zM951 677q0 60 -43 103t-103 43h-586q-60 0 -103 -43
t-43 -103v-439q0 -61 43 -104t103 -43v0h191l52 -52q21 -21 50 -21t50 21l52 52h191q60 0 103 43t43 104v0v439z" />
    <glyph glyph-name="filter" unicode="&#xe653;" 
d="M922 758l-337 -340v-546l-146 146v399l-338 341q-28 29 -28 69t28 69h821q28 -29 28 -69t-28 -69z" />
    <glyph glyph-name="enabled" unicode="&#xe654;" 
d="M805 -128h-586q-30 0 -51.5 21.5t-21.5 51.5v0v439q0 30 21.5 51.5t51.5 21.5h41l-24 62q-17 43 -17 92q0 81 45.5 146.5t119.5 94.5l71 26q44 18 93 18q81 0 147 -45.5t95 -118.5l14 -36l-69 -27l-13 35q-22 53 -69 85.5t-105 32.5q-35 0 -68 -13l-68 -26
q-53 -20 -86 -67t-33 -105q0 -35 13 -67l34 -87h465v0q30 0 51.5 -21.5t21.5 -51.5v-439q0 -30 -21.5 -51.5t-51.5 -21.5v0z" />
    <glyph glyph-name="del" unicode="&#xe656;" 
d="M951 603h-878v0q-30 0 -51.5 21.5t-21.5 52t21.5 52t51.5 21.5v0h220q0 60 42.5 103t103.5 43h146q61 0 103.5 -43t42.5 -103h220v0q30 0 51.5 -21.5t21.5 -52t-21.5 -52t-51.5 -21.5v0zM293 530h438v0q61 0 104 -42.5t43 -103.5v-366q0 -60 -43 -103t-104 -43v0h-438v0
q-61 0 -104 43t-43 103v366q0 61 43 103.5t104 42.5v0z" />
    <glyph glyph-name="transport-list" unicode="&#xe657;" horiz-adv-x="1101" 
d="M730 870l262 -263q21 -21 21 -51v-9v0q-1 -12 -6 -24q-6 -18 -23.5 -30.5t-39.5 -13.5h-822q-28 0 -48 20t-20 48.5t20 48.5t48 20h651l-149 149q-23 22 -23 54q0 31 22 52.5t53 21.5q32 0 54 -23v0zM1013 205q0 -28 -20 -48t-49 -20h-650l148 -149q22 -21 22 -52
t-22 -53t-52.5 -22t-52.5 22l-263 263q-21 21 -21 51q0 4 1 9v0q1 12 5 24q6 18 23.5 30.5t39.5 12.5h822v0q29 0 49 -19.5t20 -48.5v0z" />
    <glyph glyph-name="keep" unicode="&#xe658;" horiz-adv-x="1102" 
d="M551 896l182 -322l370 -69l-258 -268l47 -365l-341 156l-340 -156l46 365l-257 268l370 69zM421 516l-264 -48l184 -186l-34 -252l244 107l243 -107l-33 252l184 186l-264 48l-130 223l-130 -223v0z" />
    <glyph glyph-name="menu-app" unicode="&#xe659;" 
d="M878 -128h-147q-60 0 -103 43t-43 103v293h293v0q60 0 103 -43t43 -103v-147q0 -60 -43 -103t-103 -43zM878 457h-293v293q0 60 43 103t103 43h147q60 0 103 -43t43 -103v-147q0 -60 -43 -103t-103 -43zM293 -128h-147q-60 0 -103 43t-43 103v147q0 60 43 103t103 43h293
v-293q0 -60 -43 -103t-103 -43zM0 603v147q0 60 43 103t103 43h147v0q60 0 103 -43t43 -103v-293h-293q-60 0 -103 43t-43 103v0z" />
    <glyph glyph-name="inbox" unicode="&#xe65a;" horiz-adv-x="1260" 
d="M1103 -128h-945q-66 0 -112 46t-46 112v472q0 36 16 68l392 -235l-0.5 -0.5t-1.5 -0.5l-159 -159q-11 -11 -11 -26.5t11 -26.5t26.5 -11t26.5 11l159 159q8 9 8 21l181 -109q1 -1 2 -1t1 -1q7 -3 14 -3v0h3v0q1 -1 2.5 -1t2.5 1q17 1 27 14l108 70l153 -153
q11 -11 27 -11t27 11t11 27t-11 27l-142 142l376 245q11 -27 11 -58v-472q0 -66 -46 -112t-111 -46zM71 633q39 27 87 27v78q0 66 46 112t111 46h630q65 0 111.5 -46t46.5 -112v-78q54 -1 97 -34l-532 -347zM827 738h-394q-16 0 -27.5 -11.5t-11.5 -27.5t11.5 -27.5
t27.5 -11.5h394q16 0 27.5 11.5t11.5 27.5t-11.5 27.5t-27.5 11.5zM866 542q0 16 -11.5 27.5t-27.5 11.5h-394q-16 0 -27.5 -11.5t-11.5 -28t11.5 -28t27.5 -11.5h394q16 0 27.5 11.5t11.5 28.5v0z" />
    <glyph glyph-name="search" unicode="&#xe65b;" 
d="M960 -106q-22 -22 -53.5 -22t-53.5 22l-207 207q-87 -46 -189 -46v0l503 -54q22 -22 22 -53.5t-22 -53.5v0zM459 736q-110 0 -187.5 -77.5t-77.5 -187.5t77.5 -187.5t187.5 -77.5t187.5 77.5t77.5 187.5t-77.5 187.5t-187.5 77.5v0z" />
    <glyph glyph-name="notice" unicode="&#xe65c;" 
d="M906 30h-236q0 -66 -46.5 -112t-111.5 -46t-111.5 46t-46.5 112h-236q-32 0 -55.5 23t-23.5 55.5t23.5 55.5t55.5 23h79v315q0 108 66 192.5t168 111.5l2 11q0 33 23 56t56 23t56 -23t23 -56v-11q103 -27 169.5 -111.5t66.5 -192.5v-315h79q32 0 55.5 -23t23.5 -55.5
t-23.5 -55.5t-55.5 -23z" />
    <glyph glyph-name="eg-apply" unicode="&#xe65d;" horiz-adv-x="1321" 
d="M1272 500h-83q28 0 47 -19.5t19 -46.5l33 -364v-132q0 -27 -19 -46.5t-47 -19.5v0h-99q-27 0 -46.5 19.5t-19.5 46.5v0v66h-793v-66q0 -27 -19 -46.5t-47 -19.5v0h-99q-27 0 -46.5 19.5t-19.5 46.5v0v132l33 364q0 27 19.5 46.5t46.5 19.5h-82q-21 0 -35.5 14.5t-14.5 35
t14.5 35t35.5 14.5h132l1 -0.5l1 -0.5l47 166q0 55 39 93.5t93 38.5v0h595q55 0 93.5 -38.5t38.5 -93.5l47 -166q1 0 1.5 0.5t1.5 0.5h132q20 0 34.5 -14.5t14.5 -35t-14.5 -35t-34.5 -14.5zM545 169h264q21 0 35.5 14.5t14.5 35t-14.5 35t-35.5 14.5h-264q-20 0 -35 -14.5
t-15 -35t15 -35t35 -14.5zM314 169v0q20 0 34.5 14.5t14.5 35t-14.5 35t-35 14.5t-35 -14.5t-14.5 -35t14.5 -35t35.5 -14.5v0zM1000 748q0 82 -115 82h-449q-114 0 -114 -82l-58 -200q0 -81 115 -81h597q47 0 64 17t17 64zM1041 268q-21 0 -35.5 -14.5t-14.5 -35t14.5 -35
t35 -14.5t35 14.5t14.5 35t-14.5 35t-34.5 14.5v0z" />
    <glyph glyph-name="drag" unicode="&#xe65e;" 
d="M0 -128v146h1024v-146h-1024zM0 457h1024v-146h-1024v146zM0 896h1024v-146h-1024v146z" />
    <glyph glyph-name="folder" unicode="&#xe65f;" horiz-adv-x="1194" 
d="M1109 -128h-1024q-35 0 -60 25t-25 60v0v854q0 35 25 60t60 25h427v0q35 0 60 -25t25 -60v-86h512v0q36 0 61 -25t25 -60v-683q0 -35 -25 -60t-61 -25v0z" />
    <glyph glyph-name="question" unicode="&#xe660;" 
d="M512 -128q-139 0 -257 68.5t-186.5 186.5t-68.5 257t68.5 257t186.5 186.5t257 68.5t257 -68.5t186.5 -186.5t68.5 -257t-68.5 -257t-186.5 -186.5t-257 -68.5zM512 823q-89 0 -170.5 -35t-140 -93.5t-93.5 -140t-35 -170.5t35 -170.5t93.5 -140t140 -93.5t170.5 -35
t170.5 35t140 93.5t93.5 140t35 170.5v0q0 89 -35 170.5t-93.5 140t-140 93.5t-170.5 35v0v0zM541 196v-4q-6 -5 -31 -5q-12 1 -21 10t-9 22v0q62 111 178 159q-8 -2 -12.5 0.5t-5 9.5t0.5 14.5t2.5 19.5t1.5 21q0 52 -36.5 88.5t-87.5 36.5h-2q-59 0 -101 -41.5t-42 -101.5
q0 -5 1 -10l-62 1q7 169 129 209q41 14 77 9q4 1 8 1q49 0 90 -24t66 -64q24 -49 24 -104q0 -77 -45 -138q-46 -19 -81.5 -54t-53.5 -81zM539 196h2l1 -5q0 -2 -1 -0.5t-2 5.5zM480 220zM540 96q11 -11 11 -27.5t-11.5 -28t-27.5 -11.5t-27.5 11.5t-11.5 28t11 27.5
q12 12 28 12t28 -11v-1z" />
    <glyph glyph-name="arrow-down" unicode="&#xe661;" horiz-adv-x="1536" 
d="M1479 582l-596 -652q-48 -53 -119 -53t-119 53l-596 652q-49 55 -49 129.5t49 129.5q47 55 119 55t120 -55l477 -521l476 521q47 55 119 55t119 -55q49 -55 49 -129.5t-49 -130.5v1z" />
    <glyph glyph-name="caret-bottom" unicode="&#xe662;" horiz-adv-x="2048" 
d="M1026 -66l-900 900h1800z" />
    <glyph glyph-name="write-letter" unicode="&#xe663;" horiz-adv-x="1105" 
d="M1024 -128h-945q-33 0 -56 23t-23 55.5t23 56t56 23.5h945q32 0 55 -23.5t23 -56t-23 -55.5t-55 -23zM860 568l-243 243l68 68q16 17 40 17t41 -17l162 -162q16 -17 16 -40.5t-16 -40.5zM199 111q-16 0 -27 11t-11 27l-3 149l189 -190zM496 203q-17 -17 -40.5 -17
t-40.5 17l-68 68l230 230q5 5 5 12q0 8 -5.5 13.5t-13.5 5.5t-13 -4l-230 -230l-67 67q-17 17 -17 41t17 41l310 310l243 -243z" />
    <glyph glyph-name="mail-read" unicode="&#xe664;" horiz-adv-x="1102" 
d="M679 299l274 158l-401 340l-403 -341l276 -157l-425 -332v498q0 37 26 63l41 -24l464 391l20 -19l21 19l463 -391l41 24q27 -26 27 -63v-498zM585 266l476 -380q-23 -14 -50 -14h-919v0q-28 0 -51 15l475 379q15 14 35 14t34 -14z" />
    <glyph glyph-name="pause" unicode="&#xe665;" 
d="M666 -128v1024h204v-1024h-204zM154 896h204v-1024h-204v1024z" />
    <glyph glyph-name="expand" unicode="&#xe666;" 
d="M896 256h-256v-256q0 -53 -37.5 -90.5t-90.5 -37.5t-90.5 37.5t-37.5 90.5v256h-256q-53 0 -90.5 37.5t-37.5 90.5t37.5 90.5t90.5 37.5h256v256q0 53 37.5 90.5t90.5 37.5t90.5 -37.5t37.5 -90.5v-256h256q53 0 90.5 -37.5t37.5 -90.5t-37.5 -90.5t-90.5 -37.5z" />
    <glyph glyph-name="mail-send" unicode="&#xe667;" horiz-adv-x="1536" 
d="M1177.5 -128q-97.5 0 -180 48t-130.5 130.5t-48 180t48 180t130.5 130.5t180 48t180 -48t130.5 -130.5t48 -180t-48 -180t-130.5 -130.5t-180 -48zM1229 486v-204h-307v-103h307v-205l205 256zM1114 685l115 109v-108q-31 5 -66 6q-30 -3 -60 -9zM575 378l-529 502
q25 16 56 16v0h1024q31 0 57 -16l-531 -502q-16 -15 -38 -15t-39 15v0zM687 281l39 35q-9 -41 -9 -88v2v0q0 -141 79 -257l-694 1h-2q-41 0 -70 28.5t-30 69.5v722l542 -513q31 -29 72.5 -29t72.5 29v0z" />
    <glyph glyph-name="forwarded" unicode="&#xe668;" horiz-adv-x="1102" 
d="M945 -128h-787q-66 0 -112 46t-46 112v708q0 66 46 112t112 46h78v-79h-78q-33 0 -56 -23t-23 -56v-708q0 -33 23 -56t56 -23h787q33 0 56 23t23 56v78h79v-78q0 -66 -46.5 -112t-111.5 -46zM1024 738q0 16 -6 30q-1 -13 -9 -22l-467 -467q-12 -13 -30 -13t-30 12t-12 29
q0 18 13 31l469 468q7 6 17 7q-14 4 -26 4h-470v79h472q65 0 111.5 -46t46.5 -112v-393h-79v393z" />
    <glyph glyph-name="subfile" unicode="&#xe669;" 
d="M866 -128h-708q-33 0 -56 23t-23 56v866q0 33 23 56t56 23h551l236 -236v-709q0 -33 -23 -56t-56 -23zM866 580l-236 237h-472v-866h708v629z" />
    <glyph glyph-name="email" unicode="&#xe66a;" horiz-adv-x="1331" 
d="M587 212q33 -32 78.5 -32t78.5 32l587 570v-802q-1 -45 -32.5 -76.5t-76.5 -31.5h-2h-1109h-2q-45 0 -76.5 31.5t-32.5 75.5v803zM1280 879l-574 -558q-17 -17 -41.5 -17t-41.5 17l-573 557q26 18 59 18h2h1109h1q32 0 59 -18v1z" />
    <glyph glyph-name="arrow-left" unicode="&#xe66b;" 
d="M443 385l347 -346q28 -28 28 -68.5t-28.5 -69t-69 -28.5t-69.5 29l-416 414q-29 29 -29 69t29 69l416 413q29 29 69.5 29t69 -28.5t28.5 -69t-28 -68.5z" />
    <glyph glyph-name="arrow-right" unicode="&#xe66c;" 
d="M787 314l-413 -414q-28 -28 -68.5 -28t-69 28.5t-28.5 69t29 69.5l344 343l-344 345q-32 29 -32 72q0 40 28.5 69t68.5 29q43 0 72 -33l413 -412q29 -29 29 -69t-29 -69z" />
    <glyph glyph-name="arrow-up" unicode="&#xe74d;" horiz-adv-x="1536" 
d="M107 241l559 612q44 49 111 49t111 -49l559 -612q46 -51 46 -121t-46 -122q-44 -51 -111.5 -51t-111.5 51l-447 489l-447 -489q-45 -51 -112 -51t-111 51q-47 52 -47 122t47 122v-1z" />
    <glyph glyph-name="redo" unicode="&#xe67a;" horiz-adv-x="1092" 
d="M615 145v-273l478 478l-478 546v-273q-8 0 -22 -1t-57.5 -9t-85 -21t-98 -40.5t-104.5 -63.5t-96.5 -94.5t-82 -130t-53 -172.5t-16.5 -219q88 129 226 204.5t298 75.5q48 0 94 -7h-3z" />
    <glyph glyph-name="undo" unicode="&#xe67b;" horiz-adv-x="1092" 
d="M478 145v-273l-478 478l478 546v-273q8 0 22 -1t57 -9t85 -21t98.5 -40.5t104.5 -63.5t96.5 -94.5t81.5 -130t52.5 -172.5t16.5 -219q-87 129 -225 204.5t-299 75.5q-47 0 -94 -7h4z" />
    <glyph glyph-name="interactive" unicode="&#xe66d;" 
d="M967 498h-284q-24 0 -40.5 16.5t-16.5 40t16.5 40.5t40.5 17h80q-47 53 -112 83t-139 30q-109 0 -196.5 -62.5t-123.5 -162.5l-179 -2q40 173 179 285.5t319 112.5q119 0 223 -51t175 -141l1 135q0 24 17 40.5t40.5 16.5t40 -16.5t16.5 -40.5v-284q0 -24 -16.5 -40.5
t-40.5 -16.5zM57 327h284q24 0 40.5 -16.5t16.5 -40t-16.5 -40.5t-40.5 -17h-123q46 -78 124 -124t171 -46q125 0 219.5 80.5t114.5 201.5l174 2q-15 -127 -85.5 -231t-182 -164t-239.5 -60q-119 0 -223.5 51.5t-175.5 140.5l-1 -78q0 -24 -17 -40.5t-40.5 -16.5t-40 16.5
t-16.5 40.5v284q0 24 16.5 40.5t40.5 16.5v0z" />
    <glyph glyph-name="background" unicode="&#xe66e;" 
d="M227.5 896q94.5 0 161 -66.5t66.5 -161.5v-227h-227q-95 0 -161.5 66.5t-66.5 161t66.5 161t161 66.5zM228 327h227v-227q0 -95 -66.5 -161.5t-161 -66.5t-161 66.5t-66.5 161t66.5 161t161.5 66.5v0zM796 441h-227v227q0 95 66.5 161.5t161 66.5t161 -66.5t66.5 -161
t-66.5 -161t-161.5 -66.5v0zM1024 99.5q0 -94.5 -66.5 -161t-161 -66.5t-161 66.5t-66.5 161.5v227h227q95 0 161.5 -66.5t66.5 -161z" />
    <glyph glyph-name="image" unicode="&#xe66f;" horiz-adv-x="1422" 
d="M1308 -128h-1194q-47 0 -80.5 33.5t-33.5 80.5v796q0 47 33.5 80.5t80.5 33.5h1194q48 0 81 -33.5t33 -80.5v-796q0 -47 -33 -80.5t-81 -33.5zM1308 725q0 24 -16.5 40.5t-39.5 16.5h-1081v0q-24 0 -40.5 -16.5t-16.5 -40.5v0v-682l398 284l114 -171l341 342l341 -398
v625zM341 441q-47 0 -80 33.5t-33 80.5t33 80t80 33t80.5 -33t33.5 -80t-33.5 -80.5t-80.5 -33.5v0z" />
    <glyph glyph-name="shape" unicode="&#xe670;" horiz-adv-x="1137" 
d="M1024 -128h-284q-48 0 -81 33.5t-33 80.5v0v284q0 47 33 80.5t81 33.5v0h284q47 0 80.5 -33.5t33.5 -80.5v-284q0 -47 -33.5 -80.5t-80.5 -33.5v0zM284 884l569 12l-291 -512zM512 128q0 -106 -75 -181t-181 -75t-181 75t-75 181t75 181t181 75t181 -75t75 -181z" />
    <glyph glyph-name="left-alignment" unicode="&#xe671;" 
d="M819 9h-478q-56 0 -96 40t-40 96.5t40 96.5t96 40h478q57 0 97 -40t40 -96.5t-40 -96.5t-97 -40zM546 418h-205q-56 0 -96 40t-40 96.5t40 96.5t96 40h205q57 0 97 -40t40 -96.5t-40 -96.5t-97 -40zM102.5 -128q-14.5 0 -24.5 10t-10 24v956q0 14 10 24t24.5 10t24.5 -10
t10 -24v-956q0 -14 -10 -24t-24.5 -10z" />
    <glyph glyph-name="chuizhijuzhong" unicode="&#xe672;" horiz-adv-x="1489" 
d="M1443 337h-233v-279q0 -77 -54.5 -131.5t-131.5 -54.5t-131.5 54.5t-54.5 131.5v279h-186v-93q0 -77 -54.5 -131.5t-132 -54.5t-132 54.5t-54.5 131.5v93h-232q-20 0 -33.5 14t-13.5 33t13.5 33t33.5 14h232v93q0 77 54.5 131.5t132 54.5t132 -54.5t54.5 -131.5v-93h186
v279q0 77 54.5 131.5t131.5 54.5t131.5 -54.5t54.5 -131.5v-279h233q19 0 32.5 -14t13.5 -33t-13.5 -33t-32.5 -14z" />
    <glyph glyph-name="top-alignment" unicode="&#xe673;" horiz-adv-x="1102" 
d="M1063 817h-1024q-16 0 -27.5 11.5t-11.5 28t11.5 28t27.5 11.5h1024q17 0 28.5 -11.5t11.5 -28t-11.5 -28t-28.5 -11.5zM315 738v0q65 0 111.5 -46t46.5 -111v-236q0 -66 -46.5 -112t-111.5 -46t-111 46t-46 112v236q0 65 46 111t111 46zM787.5 738q65.5 0 111.5 -46
t46 -111v-551q0 -66 -46 -112t-111.5 -46t-111.5 46t-46 112v551q0 65 46 111t111.5 46z" />
    <glyph glyph-name="bottom-alignment" unicode="&#xe674;" horiz-adv-x="1102" 
d="M1063 -128h-1024q-16 0 -27.5 11.5t-11.5 28t11.5 28t27.5 11.5h1024q17 0 28.5 -11.5t11.5 -28t-11.5 -28t-28.5 -11.5zM788 30q-66 0 -112 46t-46 111v551q0 66 46 112t111.5 46t111.5 -46t46 -112v-551q0 -65 -46 -111t-111 -46v0zM315 30q-65 0 -111 46t-46 111v236
q0 66 46 112t111 46t111.5 -46t46.5 -112v-236q0 -65 -46.5 -111t-111.5 -46v0z" />
    <glyph glyph-name="center" unicode="&#xe675;" 
d="M736 64h-192v-160q0 -13 -9.5 -22.5t-22.5 -9.5t-22.5 9.5t-9.5 22.5v160h-192q-53 0 -90.5 37.5t-37.5 90.5t37.5 90.5t90.5 37.5h192v128h-64q-53 0 -90.5 37.5t-37.5 90.5t37.5 90.5t90.5 37.5h64v160q0 13 9.5 22.5t22.5 9.5t22.5 -9.5t9.5 -22.5v-160h64
q53 0 90.5 -37.5t37.5 -90.5t-37.5 -90.5t-90.5 -37.5h-64v-128h192q53 0 90.5 -37.5t37.5 -90.5t-37.5 -90.5t-90.5 -37.5z" />
    <glyph glyph-name="text" unicode="&#xe676;" horiz-adv-x="1080" 
d="M996 725h-370v-768q0 -35 -25 -60t-60.5 -25t-60.5 25t-25 60v768h-370q-35 0 -60 25t-25 60.5t25 60.5t60 25h911q35 0 60 -25t25 -60.5t-25 -60.5t-60 -25z" />
    <glyph glyph-name="copy" unicode="&#xe677;" 
d="M864 128h-128v448q0 53 -37.5 90.5t-90.5 37.5h-256v64q0 53 37.5 90.5t90.5 37.5h384q53 0 90.5 -37.5t37.5 -90.5v-512q0 -53 -37.5 -90.5t-90.5 -37.5zM672 512v-512q0 -53 -37.5 -90.5t-90.5 -37.5h-384q-53 0 -90.5 37.5t-37.5 90.5v512q0 53 37.5 90.5t90.5 37.5
h384q53 0 90.5 -37.5t37.5 -90.5z" />
    <glyph glyph-name="back" unicode="&#xe678;" horiz-adv-x="1607" 
d="M1534 311h-1287l329 -329q3 -10 3 -21q0 -36 -30 -55q-20 -30 -55 -30q-11 0 -21 3l-468 468q-5 9 -5 19t5 18q-5 8 -5 18t5 19l468 468q10 3 21 3q36 0 55 -30q30 -20 30 -55q0 -11 -3 -21l-329 -329h1287q30 0 51.5 -21.5t21.5 -51.5t-21.5 -51.5t-51.5 -21.5z" />
    <glyph glyph-name="add" unicode="&#xe679;" 
d="M980 340h-424v-424q0 -18 -13 -31t-31 -13t-31 13t-13 31v424h-424q-18 0 -31 13t-13 31t13 31t31 13h424v424q0 18 13 31t31 13t31 -13t13 -31v-424h424q18 0 31 -13t13 -31t-13 -31t-31 -13z" />
    <glyph glyph-name="grid" unicode="&#xe67c;" 
d="M960 -128h-128q-27 0 -45.5 18.5t-18.5 45.5v128q0 27 18.5 45.5t45.5 18.5h128q27 0 45.5 -18.5t18.5 -45.5v-128q0 -27 -18.5 -45.5t-45.5 -18.5zM960 256h-128q-27 0 -45.5 18.5t-18.5 45.5v128q0 27 18.5 45.5t45.5 18.5h128q27 0 45.5 -18.5t18.5 -45.5v-128
q0 -27 -18.5 -45.5t-45.5 -18.5zM960 640h-128q-27 0 -45.5 18.5t-18.5 45.5v128q0 27 18.5 45.5t45.5 18.5h128q27 0 45.5 -18.5t18.5 -45.5v-128q0 -27 -18.5 -45.5t-45.5 -18.5zM576 -128h-128q-27 0 -45.5 18.5t-18.5 45.5v128q0 27 18.5 45.5t45.5 18.5h128
q27 0 45.5 -18.5t18.5 -45.5v-128q0 -27 -18.5 -45.5t-45.5 -18.5zM576 256h-128q-27 0 -45.5 18.5t-18.5 45.5v128q0 27 18.5 45.5t45.5 18.5h128q27 0 45.5 -18.5t18.5 -45.5v-128q0 -27 -18.5 -45.5t-45.5 -18.5zM576 640h-128q-27 0 -45.5 18.5t-18.5 45.5v128
q0 27 18.5 45.5t45.5 18.5h128q27 0 45.5 -18.5t18.5 -45.5v-128q0 -27 -18.5 -45.5t-45.5 -18.5zM192 -128h-128q-27 0 -45.5 18.5t-18.5 45.5v128q0 27 18.5 45.5t45.5 18.5h128q27 0 45.5 -18.5t18.5 -45.5v-128q0 -27 -18.5 -45.5t-45.5 -18.5zM192 256h-128
q-27 0 -45.5 18.5t-18.5 45.5v128q0 27 18.5 45.5t45.5 18.5h128q27 0 45.5 -18.5t18.5 -45.5v-128q0 -27 -18.5 -45.5t-45.5 -18.5zM192 640h-128q-27 0 -45.5 18.5t-18.5 45.5v128q0 27 18.5 45.5t45.5 18.5h128q27 0 45.5 -18.5t18.5 -45.5v-128q0 -27 -18.5 -45.5
t-45.5 -18.5z" />
    <glyph glyph-name="export" unicode="&#xe62d;" horiz-adv-x="1077" 
d="M793 122v0q-16 17 -40 17q-21 0 -36 -14l-55 -52q-8 -7 -19 -7t-19 7.5t-8 19.5v0v334v0q0 23 -15.5 38.5t-38 15.5t-38 -15.5t-15.5 -38.5v0v-334q0 -11 -8 -18.5t-19 -7.5t-19 7l-52 50q-15 13 -36 13q-22 0 -37.5 -15.5t-15.5 -37.5t15 -38l153 -145q32 -29 74 -29
q44 0 75 30l152 145q16 15 16 38q0 21 -14 37v0zM-1 800v-347q0 -42 29 -69t85 -27h48v0q22 0 37.5 15.5t15.5 38.5v0v0q0 22 -15.5 38t-37.5 16h-1q-22 0 -37.5 15.5t-15.5 37.5v217v0q0 22 15.5 37.5t37.5 15.5h755q22 0 38 -15.5t16 -37.5v0v-217q0 -22 -16 -37.5
t-38 -15.5v0q-23 0 -38.5 -16t-15.5 -38v0v0q0 -23 15.5 -38.5t38.5 -15.5v0h60q46 0 74 28t28 68v347q0 40 -28.5 68t-67.5 28h-886q-40 0 -68 -28t-28 -68v0z" />
    <glyph glyph-name="upload-lists-copy" unicode="&#xe74e;" horiz-adv-x="1101" 
d="M1040 166l-262 -262q-21 -21 -51 -21h-9v0q-13 1 -24 6q-19 6 -31.5 23.5t-12.5 39.5v822q0 28 20 48t48.5 20t48.5 -20t20 -48v-651l148 149q23 23 55 23q30 0 52 -22t22 -53q0 -32 -23 -54h-1zM376 -117q-28 0 -48 20t-20 49v650l-149 -148q-22 -22 -52.5 -22t-52.5 22
t-22 52.5t22 52.5l263 263q21 21 51 21q4 0 8 -1h1q12 -1 23 -5q19 -6 31.5 -23.5t12.5 -39.5v-822v0q0 -29 -20 -49t-48 -20v0z" />
  </font>
</defs>
</svg>
